<?xml version="1.0" encoding="UTF-8"?>
<svg id="_レイヤー_1" data-name="レイヤー_1" xmlns="http://www.w3.org/2000/svg" version="1.1" viewBox="0 0 780 370">
  <!-- Generator: Adobe Illustrator 29.0.1, SVG Export Plug-In . SVG Version: 2.1.0 Build 192)  -->
  <path d="M778.6,365.5c-1.7.6-3.4-.9-4.5-1h-60c-2.3,0,.7-5.3,1.1-6.9.5-2.1,0-4.8.6-6.4.8-2.3,4.2-1.5,4.9-9.1,3.9-45.4-3.1-96,0-141.9.2-8.2,8.4-10.1,13.5-15,6.9-6.6,15.2-21.7,16.2-31.3,3.7-34.3-35-55.7-64.3-57.4-10.4-.6-22.5-.5-32.5,2-.5-.6,3.1-9,3.5-11,2.3-10.4,1.6-39.4,1.5-51.5-.3-26.9-11.6-36.2-37.6-35.6-24.8.6-49.2,7.1-74,9-31.5,2.4-63.6,1.3-95-2-17.1-1.8-55.9-11.7-69.4-.4-3.8,3.2-6.1,7.8-7.6,12.4-3.4-4.2-3.9-9.1-8.6-12.4-17.8-12.7-61.1.8-82.4,2.4-39.6,3-77.5.4-116.8-4.1-24.3-2.8-64.2-16.2-73.2,17.1-2.9,10.8-2.2,38.5-1.4,50.5.5,8.5,1.5,17.1,6,24.5-14.7-2.4-28.6-2.6-43.2.3-9.9,2-31.6,12.2-38.8,19.2-19.2,18.4-21.2,50.5-.5,68.6,3.5,3.1,13.8,7.8,14.5,11.5-.4,43.3.5,86.7,0,130,0,3.9-1.4,7.3-1,12,.6,7.5,3.7,8.6,6.8,14.2,1.8,3.4,2.4,7.1,5.2,9.8,0,1.7-11.4,2.7-13.5,2.5-5.6-.6-10.8-7.2-16.5-4.5-.2.1-.4.3-.6.4,0,.4,0,.7,0,1.1,0,1.3-.1,2.6,0,3.9,0,0,.1,0,.2,0,4.5,0,9.5,2.8,15,3.1,8,.4,13.2-2.7,19-2.9,3.2-.1,8.1,1.8,12,1.9,58,1.7,117.9,0,176.1,0,140,0,281.6-.1,421.9,1,15.4.1,31.7.5,47-1.1,15.4-1.6,34.7.2,51,0,6.5,0,17.3,1.1,23,0,1.7-.3,2.8-1.1,2.5-3ZM716.6,342c0,.2-1,2.9-2,2.5-2-48.6-.6-97.6-1-146.4l3-.6v144.5ZM719.1,180.5l3.3-3.5-1.8-3.5,3,3,2-1.5-4-4.5,8,3c.3,1.4.2,1.3-.6,2.1-1.2,1.2-12.6,9.7-13.4,8.9l1-8c4.7-.9-.9,4.3,2.5,4ZM745.7,150c.2,5.6-4.8,24.3-8.4,28.2-1.2,1.3-11.5,8.1-13.5,9-2.9,1.3-5.1,2.8-8.2,1.3.1-1.8,3.1-.7,5-1.5.8-.3,11.4-10.1,12.5-11.5,14.9-17.5,8.8-50.9-15.5-56.6-35.3-8.2-58.3,16.8-63.9,49.2-5.6,32.2.3,72.4-1.1,105.9,0,1.5.9,4-1.5,3.5l-1.6-4.4c5.6-45.4-19.7-128.6,30-155.1,29.8-15.9,65-4.5,66.1,32ZM664.6,344.5c-2.7,2-11.5-12.4-11-16l16,17c-3.8,1-3.8-3.4-6.5-5l1.5,4ZM655.2,324.5c-.7-1.7-.7-3.2-.5-5,.1-.1,2.2,1,2.7,1.3,1.8,1.6,11.1,12.4,12.8,14.7,1.7,2.4,4.1,7,4.6,9.9-4.1-5.2-17.3-15.8-19.4-21ZM651.6,322.5h-1s0-41.5,0-41.5c0-.2,1.4-1.6,2-1.5-.7,11.5.9,24.1,0,35.5-.2,1.8-2,4.8-1,7.5ZM710.6,104.5c.3,1.4-1.9,1.3-3,1.5-11.1,2.2-19.3,2.9-29.7,8.3-34.1,17.8-35.6,58-32.4,91.8.1,1.1.9,3.6-.9,3.4-1-1.2-4.4-22.3-6-20l1,14-5.7-12.8-3.3-45.2c-1.7-.2-.9,2.3-1,3.5-.2,5.6-.8,13.8-.5,19,0,1.3,1.4,2.6,1.5,4,.4,6.8.5,13.6,1,20.4l-4.9-23.6-2.1-25.4,4,24c-1.7-22.7-6.5-41.2,13-57.5,19.2-16,46.4-8.3,69-5.5ZM626.6,304c2,3.9,11.5,10.7,14.8,16.2,2.2,3.5,4.6,8.2,4.2,12.3-9-7.1-16.3-17.3-25-24.5-.8-.7-2-2.6-3-1,8.8,10.8,23.4,20.9,27,34.5l-31.5-30-.5,1.5,31,32.5c-3.2.3-5.5-1.8-7.5-4l-.5,3-25-22.5,23,24.5c-12.7,1.4-18.6-14.6-28.5-20l17.5,19.5c-1.4.8-4.8.8-6.3.5-.8-.2-.8-1.6-1.4-2-9.4-4.9-13.4-12-21.8-18l14.4,16.6,7.1,3.4c-25.8.2-51.7-.3-77.5,0-131.6,1.1-263.8,1.2-395.6.5l-14.4-2.4c-4.4-6.8-11.7-13.3-15.8-20.2-1.1-1.8-3.5-5-2.1-6.9,3.7,1.2,13.1,12.9,15.3,16.7,3,5,1.9,11.6,10.2,10.3l-.5-2,6.5,1.5-8.5-6.5-.5,3.5c-5.7-7.3-11.3-14.7-17-22-2.6-3.3-6.1-4.1-6-9,0-4.3,7.3,3.2,8.5,4.5,3.7,3.8,8.1,11.5,11.5,14.5,3.6,3.2,7.6,5,11.6,9.4,3.6,4,2.2,7.3,10.5,6-6.4-6-15.3-11.9-21.5-18-2.3-2.2-18.3-19.8-19-21-.9-1.9-1.8-6.8-1.1-8.9l10.5,10c-.8-4.1-5.7-6.2-7.8-9.7-2.6-4.2-2.4-7.6-2.2-12.3l6,5-4-10,9,4-2-5c2.8-.8,4.8,2.5,6.5,3,.6.2.3-1.8,1.1-2,7-1.9,7.2,4.8,11.3,8l-4-9c7.8,0,15.7,0,23.5,0,147.7.2,296.6-1.6,445,.8,6.7.1,13.1-3.6,18.5,3.2l-2.5-5c2.3.9,5.5,2.1,7.4,3.6,1.4,1,7,8.5,8.1,7.4l-6-8c12.3,4.7,17.9,13.5,19,26.5,0,1.1.7,3.7-1,3.5-2.5-7.8-10.7-10.9-15.5-17-.7,3,4.8,6.3,7,9,6,7.1,9.1,12.6,10.5,22-1.9-1.3-2.8-4-4.5-6-3.2-3.8-11.8-12.8-15.5-15.5-1.3-1-1.4.2-1,1ZM108.6,334.5c4.8,2.4,8,6.7,11,11h-8c-.7-4.4,3.3,0,5-1.5-2.7-3.1-8.3-4.6-8-9.5ZM112.6,335c-1.6-2.2-3.2-4.7-3-7.5,2.2-2.4,14.4,16.7,16,18-1.9,1.5-11.6-8.6-13-10.5ZM122.6,201.1c2.8-2.3,4.8-5.5,8.5-8.6,35.1-29.4,130-30,173.9-23.9,18,2.5,58.9,12.3,65.4,31.6.9,2.8,2.2,9.8,0,12-7.5,3.8-16.2,1.8-24.3,2.2-72.8,3.3-146.6.1-219.4.5l-4-3.5,1.5,5-10.5-3.5,4-6.5,3,2c-1.2-2.9-.4-5.4,2-7.4ZM177.6,168.5c-2.4-.5-5.2-2.9-7-4.5-22.4-19.1-41.6-42.4-60.4-64.6-3.4-4-11.1-8.2-10-14,5.9,7.6,14.5,11.8,20.5,19l-7.5-6-.5,1.5,65,68.5ZM164.6,169c-.8,4.4-2.4-.5-3.4-1.5-9.8-10.3-20.5-19.9-26.6-33l12.5,10c6.4,7.5,15.3,14,21.5,21.5.9,1.1,2.4,1.6,2,3.5l-4.1-1.4c-6.6-7.2-14-16.3-21.4-22.6-1.1-.9-1.6-2.4-3.5-2l23,25.5ZM138.1,149.6c-.4-.8-1.2-3.3.6-3.1.7,2.2,2.8,5,4.4,6.6,4.9,5.3,11,10.2,15.6,15.9.9,1.1,2.4,1.6,2,3.5-2.1.3-3.2-1.7-4.5-3-2.9-2.8-17.1-17.8-18-20ZM153.6,172.5c-1.9.4-2.4-1-3.5-2-3.2-2.7-8-7.2-9.5-11l13,13ZM130.3,139.3c2.5,12.9,4,26,3.3,39.2l-5-44c1.5,0,1.4,3.5,1.7,4.8ZM179.6,265.5l4,1-.5,5,3.5-4.5c0-.3-4-.9-2-2.5.5-.4,5,2.7,7,1,.5.4-7.2,8.4-8.5,9-2.7,1.2-.7-4-2-4-4.6.9-7.4,5-12.5,4,1.6-2.4,5-4.7,7.4-6.1,2.8-1.5,5.7.3,3.6-2.9ZM214.6,275.5c.1-7,7.8-10.7,14-11l-14,11ZM236.6,263.5c1.6,1.5-10.9,11.5-12.7,11.8-5.4.8-2.3-3.5.4-5.7,1.4-1.2,11.6-6.9,12.3-6.1ZM202.6,274.5c3.1-4.9,8.2-7.9,13.8-9.2l.2-2.8,3,2.5c-4.5,4.7-9.8,10.5-17,9.5ZM187.6,275.5c-3.3-2.9,14.9-12.3,18-11-4.3,5.7-10.4,11.5-18,11ZM159.6,274.5c.6-2.8,6.8-12.3,10-10-.9,2.5-6.8,12.7-10,10ZM138.6,264.5l6,2.5-5.3,4.4-6.7-5.4,3.8-1.3,1.2,3.9,2-.5-1-3.5ZM148.4,269.2c.8-.8,0-4.7,5.2-3.7-1.7,5.5-6.5,8.1-12,7,.6-2.8,5.7-2.2,6.8-3.3ZM162.6,264.5l-8,9.5-4-2c5.5-2,5.7-9.2,12-7.5ZM143.3,244.9c-2.5-2.5-24.7-21.7-22.6-24.3,1.2,0,2.4-1,3.5-.9,4.5.2,15.2,13.8,18.9,17.5,8,8,16.4,15.7,23.6,24.4-11.3,1.8-16.3-9.7-23.3-16.6ZM114.1,218.5c1.2,0,11,11.8,12.8,13.6,9.9,9.7,19.1,18.7,28.4,29.1.3.3,3,.8.3,1.8-3.3,1.2-5.1-2.4-6.4-3.2-7.2-4.7-22.7-19.9-28.7-26.8-2.6-3-10.3-10.8-6.5-14.5ZM113.1,227.5c3.5,3.2,7.2,8.3,11,12,7.1,7,15.6,12.9,20.5,22-4.2.6-6.4-.4-9.4-3.1-4.9-4.3-21.3-22-23.8-27.2-.9-1.8-.8-4-1.8-5.7,1.8-.4,2.4,1,3.5,2ZM109.6,235.5c4.4,1.4,7.1,6.6,10.5,10,3.8,3.9,9.8,8.5,13.1,12.9,1,1.4,1.9,2,1.5,4-7.9,3.7-27-24.9-25-27ZM124.6,262.5c-2,1.9-15.5-11.8-14-16l3.2,2.3,10.8,13.7ZM261.1,265.5h3.5c1.1,1.1-5.6,12.2-8,10,.3-3,3.4-5.1.5-8-.6,5.9-3.5,8.5-9.5,8l8.5-12c.6,0,1.2,2.2,1.8,2.6,1.1.9,2.2,1.6,3.7,1.3l-.5-2ZM270.6,268.5c2.4-1.9,2-4.2,6.3-2.8,3.2,1.1.7,3.2-.3,4.8,3.9.5,4.8-1.6,3-5l8-1c1.8,2.5-7.1,9.1-8.5,11l-4-4-5.5,4.1c-.5-2.5.8-4.8,1-7-1.8,1.5-8.1,8.4-10,7,.8-1.1,9.4-13.8,10-9.5,0,.8,0,1.7,0,2.5ZM338.6,274l3-4.5-5.5,5-1-2-8.5,2,2.5-3c-5.1.4-8.3,4.6-13.5,2-1.1-1.5,11.2-6.8,13.5-6.5,1.8.2,3.3,3.9,4.5-1.4,4.8,3.5,5.9.4,8.6.2,1.2,0,2.1,1.5,3.6,1.6,1.5,0,7.4-2.2,7.7-1.7.9,4.3-1.4,2.3-2.6,3.3-2.6,2.2-5.3,4.4-7.9,6.7-1.6-2.4,3.1-3.9,3.5-6-4.2-1.4-4.3,6.3-8,4.5ZM314.1,272.5c-3,.8.9-3.1-2-2-3.7,1.4-6.8,5.1-11.5,4,2.2-6,9.6-9.7,15.6-7.1.7-3.4,5.4-.7,8.4-1.9l-10.5,7ZM303.9,267.3l-12.3,8.2c2.6-9.7,11.2-10.7,20-11l-7.7,2.8ZM293.6,269c-1.8.7-5.1,7.1-6.5,6.5-6.9-3.1,7.5-12,8.5-11l-2,4.5ZM244.4,275.3c-1.5.9-4.9,0-6.8.2,1.5-2.6,13.8-14.9,16-13,.6.5-8.5,12.4-9.2,12.8ZM431.4,170.8c48.2-8.8,147.9-9.1,188.1,21.3,7.8,5.9,14.5,13.1,19.1,21.9l-259.9.4c-8-29.7,30.9-39.6,52.7-43.6ZM378.6,170.5l7.8,11.5-2.8,2.5c-.7-5.1-5.2-8.7-5-14ZM623.1,140.5c.6-2.3,1.3-6.7,3.5-8-5.9,17.6-2,36.1,0,54l-1.7-2.8c-.9-14.1-5.1-29.3-1.8-43.2ZM643.6,242.5l-12.5-13-.5,1.5c4.7,5.7,11.6,12.1,13,19.5l-24.5-24-.5,1.5,20.6,26.5-1.1,3-23.5-23,19.5,24c1.2.9-.3,2.8-1,3-5.5,1.4-22.7-23-28.5-26-.4,1.9,1,2.4,2,3.5,2.4,2.8,22.8,23.3,21,25.5-9.7-4.1-17.2-11.7-24.5-19-1.6,1,.3,2.2,1,3,3.3,3.9,8,6.7,11,10,.9,1,1.8,1.4,1.5,3-12,3.3-15.1-10.5-24-15l13,15.5-7.6-.5-22.9-23c-1.6,1,.3,2.2,1,3,5.7,6.8,13.3,12.2,18.5,19.5-.5.6-3.2,1.3-3.7,1.2-4.7-.3-16.3-15.4-20.8-18.7-1.6,1,.3,2.2,1,3,3.9,4.7,10.7,9.2,12.5,15-10.6,1-14.5-11.1-23-15-.7.8,2.9,4.3,3.5,5,3.1,3.4,6.9,6.2,9.5,10-4.8,1.2-6.2-1.7-10-3l1,3-5-2c-.8.8,2.8,3.2-.5,3-4.3-.3-6.2-3.3-9-6l2.5,5c-7.3,1.5-10.2-2.4-15.5-6l4.5,6c-6.3-1.2-12.2.4-18.5,0-2.6-.2-5.5-1.8-7.1-1.9-.4,0-.3,1.7-1.1,1.9-2.4.5-5.8-.3-8.3,0l.9-1.8-4.8-3.2,3,5c-4.9-1.4-10.9.5-15.2-.2-6.6-1-17.4-15.7-24.2-18.8.7,2.4,3.7,4.8,5.5,6.5,1.3,1.2,14.7,11,13,12.5-5,.4-8.6-1.3-12.5-4-1.1.8,3.3,3.1,0,4-2.4.6-4.3-.9-6-.9-7.3.3-14.3,1-21.7.7l-20.2-16.8,14.5,14.5-.6,2.5c-4.5,1.5-7-.7-10.4-3.5l-40-39.5c76.8.2,153.7,1.6,230.5.9l7.4,4-2-3.5c6.3-2.3,7.4,2.8,11,6.5-.9-1.8-1.1-4.2-3-6h6c1.1.7,1,6.8,1.2,7.5.4.9,4.3,1.6,2.8,5.5-2-2.6-4.8-4.7-7-7,2.8,5.5,7.8,9.8,9,16ZM638.6,279.5c7,.6,6.6,9,8,14-4.6-6-8.2-9.7-15-13.5l9,3.5-2-4ZM526.6,273c.6,2.3-2.4,1.7-3.3,1.3-2.3-1-2.9-5.6-4.6-7.4,6.9-5,15.2,1.3,17,8.5-1.4,1.5-11.4-7.3-12.5-9-1.4,2.4,2.2,5,3.5,6.5ZM415.6,264.5c6.1,0,11.2,6.7,15,11l-7-2.5-8-8.5ZM420.6,275.5c-1.8,1.5-10.7-7.5-11-10,.7-.7,7.9,5.6,8.6,6.3.9.9,1.7,2.5,2.4,3.6ZM424.6,264.5c7.8-.9,12.2,7.2,17,12-7.5-.6-12.6-6.6-17-12ZM407.6,248c-9.3-9-20.5-17-27-28.5,5.7-1.2,7.3,2.8,10.4,5.6,9.5,8.3,26.1,22.5,33.6,31.9,1.3,1.6,3.2,3.2,3,5.5-9.4,1.4-14.4-9-20-14.5ZM435.6,263.5c6.6.5,13.2,7.7,18,12-8.1.4-13.3-6.5-18-12ZM445.6,264.5c8.7.1,13.3,5.2,19,11-7.9.6-13.3-6.6-19-11ZM457.6,264.5c4.4-.3,9.2,4.3,12,7.5,1,1.1,2.3,1.7,2,3.5-1.7,1.7-12.1-9.6-14-11ZM466.6,264.5c1.8-1.5,10.8,8,12,10-5.4,0-9.7-5.6-12-10ZM472.6,264.5c7.4-.3,12.8,5.7,17,11-7.7,1.1-11.5-7-17-11ZM482.6,264.5c6.3-.5,10.6,6.3,15,10l-5.4-1.1-9.6-8.9ZM491.6,265l3.8-.3c0,4.6,5.6,5.6,6.1,9.8-1.6,1.5-8.1-8.8-10-9.5ZM496.6,265.5c5,.2,9.8,5.4,13,9-5.7-.2-9.8-4.8-13-9ZM502.6,264.5c5.7,1.4,10.6,5.2,14,10l-6.5-2-7.5-8ZM510.6,266l6.9-.4c-.5,3.1,4.5,6.7,1.6,8.9l-8.5-8.5ZM530.6,264.5l5.9,1.5,9,9.4-7-1.5-8-9.5ZM539.6,263.5c6.1.2,8.3,5.4,12.8,8.2,1,3.4-.4,3.6-3.1,1.6l-9.7-9.8ZM549.6,264.5c7.2.1,12.8,5.6,17,11-6.8-1.2-12.6-5.9-17-11ZM559.6,264.5c3.3-1.5,18.1,8.8,16,11-6.6-1.4-12.1-5.5-16-11ZM570.6,264.5c5.3-.9,7.4,4.1,10.6,5.9,2.2,1.2,5.3.6,6.4,3.1-8.2,1.6-12.5-3.1-17-9ZM580.6,264.5c7.1-1.3,9.9,6.1,16,8l-.5,2c-3.4,0-12.4-7.5-15.5-10ZM592.6,265.5c4.6,0,10.3,4.4,13,8-6.3,1.4-9.5-3.7-13-8ZM600.6,265.5c2.1,1.2,5.5,0,7,.5,1.1.4,6.8,4.9,5,6.5-2.5,2.3-4.7-2.4-5.6-2.9-2.1-1.3-5.5-1.2-6.4-4.1ZM378.6,222.5c2.9,1.4,4.3,4.5,6.4,6.6,8.7,8.8,20.5,18.2,28.1,27.4.7.9,4.3,5.2,3.5,6-2.8.2-5.3-1.4-7.5-3-5-3.6-27.9-27.3-29.7-32.3-.6-1.6-1-3-.8-4.7ZM410.6,273.5l-3.3.8-14.7-8.8c7.1,0,12.2,5.1,18,8ZM453.1,9.5c10.9,1.1,22.1,2.5,33,3,40.5,1.8,80.3-4.4,120.5-8l-29.5,5c-19.6,1-39.3,4.4-58.9,5.1-33.8,1.1-67.2-4.2-100.6-8.5,0-2.1,32.8,3.2,35.5,3.5ZM379.7,20.1c4.5-12.6,12.4-13.3,24.4-12.6,24.3,1.3,49.4,8.4,74,10,46.8,3.1,88.3-5.7,134.1-10,15.1-1.4,34.5-5.5,38.5,14l-13.5-14c-.7-.2-.7,1-.5,1.5,1.7,3.8,9.7,9.8,12.4,14.6,1.1,2,3.2,5.6,2.1,7.9l-21-20-.5,1.5c5.7,6.5,17.5,15.2,21.4,22.6.8,1.4,2.3,4.4,1.1,5.9l-21-20c-.7-.2-.7,1-.5,1.5,2,4.5,16.4,14.6,20,21,.9,1.6,1.2,2.7,1,4.5l-12-9.5-10.5-10.5-.5,1.5c5.9,7,14.4,14,20,21,1.9,2.5,4.6,5,4,8.5-10.4-7.1-19.6-16.1-28.5-25l-.5,1.5,27,26,2,10.5c-5.1-6.1-12.3-10.2-18-15.5-2.8-2.6-4.5-5.4-7-8-1.5-1.6-3.9-4.5-6-5,2.3,3.2,5.3,7.3,8,10,8,8.3,22.6,15.1,22.5,27.5-4.6-4.8-9.4-9.3-14.5-13.5-.8-.7-2-2.6-3-1,3.5,4.5,14.7,13.7,16.5,18.5.4.9,1.1,3.5,0,4l-22.5-23c3.8,11.3,19,17.2,21,29l-9-9.5-28-25.5c-.4,1.9,1,2.4,2,3.5,9.6,11.4,20.1,22,29.3,33.8.6.8,3.1,2.3,1.7,3.7-2.2,2.2-6.9-5.4-8-6.5-6.3-6.5-13.1-12.2-19.6-18.4-1.3-1.2-14.5-16-15.5-15-.4,1.9,1,2.4,2,3.5,9.6,11.5,23.8,22.4,33,34,5.3,6.7,2.5,8-3,2.5l1.5,5-45.8-47.7-3.7-1.3c12.5,15.8,29.6,29,42.5,44,1.1,1.3,6.7,7.7,5.5,9-2.4.4-4.3-2-6-3.5-7.5-6.4-16.1-13.9-23.2-20.5-7.9-7.4-14.9-15.7-22.8-23,1.3,3.2,4.6,7,7,9.5,11.7,12.9,25.3,24.2,38,36l-2,1c3.4,2,4.7,3.2,4,7.5l-50-46c.6,2.6,3.2,5.6,4.9,7.6,11.9,13.4,27.3,24.3,39.1,37.9.6,1,3.6,9.1.5,7.5-.9-.5-1.5-2.5-2.6-3.4-15.1-12.7-29.3-26.3-43.9-39.6-.4,1.9,1,2.4,2,3.5,12.5,14.8,29.8,27.6,42.2,42.8l-.7,3.7-47.5-43c-1.1,1.1,19.4,21.1,21.5,23,6.6,6.3,14,13,21.5,18l-2,1.5,3,7.5-56-52c-1.1,1.1,18.7,20.2,20.5,22,1.3,1.3,2.1,3.2,3.4,4.6,6.7,6.6,28.4,23.7,30.3,30.7.4,1.4,1.8,1.9-.7,1.7l-53.5-46.5c5.8,7.4,12.8,14,19.5,20.5,7.8,7.6,17.7,15.2,25.1,22.9,2.7,2.9,7.4,8.1,7.4,12-8.2-9.8-19.5-16.1-29-24.5-12.8-11.3-24.8-25.8-37.5-36.5-1.1-.9-1.6-2.4-3.5-2l19,20.5,45,41,.9,3.5-4-5-2,1.5c0,1.2,8,5.8,6.5,8.5-19.6-19.9-42.4-36.1-62-56-.7-.2-.7,1-.5,1.5,1.4,3.1,15.5,14.8,19,18,6.7,6.2,12.4,10.7,19.2,16.5,8.8,7.6,14.5,17.6,21.4,26.9,2.7,3.7,7.7,6.4,7.4,12.1l-10.5-13-69-64-1.5.5,37.4,35.6c9.6,12.5,23.6,22.5,33.6,34.4.9,1.1,2.4,1.6,2,3.5-7.9-4.2-13.4-11.6-20-17.5-15.9-14.1-32.3-27.7-48-42-2.8-2.6-9-10.2-11.5-11.5-.8-.4-2-.4-1,1,2.5,3.4,9.1,9.4,12.5,12.5,16.1,15,37.1,32.1,51,49,.9,1.1,2.4,1.6,2,3.5-1.1,1.1-13.2-9-15-10.5-4.2-3.5-9.8-7.7-12-12.5l-1.5,2-36-34c-1.7,1.2.4,2.1,1.2,2.8,17.6,16.2,33.7,34.2,52.3,49.2l-10.5-2.9-35-33.1-1.5.5c9.8,9.9,20.1,19.3,29,30,.9,1.1,2.4,1.6,2,3.5-3.3,3.1-24.8-20.7-28-23.5-4-3.6-9.1-6.1-12.5-10.5l-1.5.5c5.5,5.8,12,10.6,17.5,16.5,2.5,2.6,10.6,11.8,11.5,14.5.2.5.3,1.6-.5,1.5-7.1-4-12.2-10.5-18-16-1.7,1.1.4,2.2,1,3,1,1.3,9.3,10.2,8.5,11-5.8-1.3-8.3-6.7-11.5-11-.9,2.9,3,6.3,4.5,8.5-.3,1.2-2.2.4-3,0-4-2.2-11.9-14.4-15.5-18.5-6.1-6.8-13-13.1-19-20-1.6,1,.3,2.2,1,3,10.3,12.2,21.6,23.7,30.5,37-9.2-1.4-13.5-10.8-19.3-16.6-4.5-4.6-9.7-8.7-14.2-13.3-1.5-1.6-.8-3.7-3.4-3l27,31.5-3.7-.3c-13.3-9.6-23.6-23.2-35.8-34.2-1.6,1,.3,2.2,1,3,6.2,7.3,13.8,13.2,20,20,1.4,1.6,8,9.3,8.5,10.5.6,1.4-.2,1.6-1.5,1.5-6.1-.7-14.1-11.3-18.5-15.5-7.2-7.1-14.3-14.3-21.5-21.5-1.6,1,.3,2.2,1,3,8.5,10.1,20.3,17.8,26.5,30,1.7.6.3-3.2,2-1.5.7.7,3.6,4.8,3,5.5l-8.5-1.9-30.9-31.1c-1.6,1,.4,2.2,1,3,8.5,10.5,19.5,18.5,27.5,29.5l-6.4-.6-37.1-36.9c-1.6,1,.3,2.2,1,3,7.8,9.2,17.1,17,25,26,.8.9,7.2,8.4,6.5,9-2.2.2-3.6.2-5.5-.9-3.3-1.8-12.2-12.6-15.9-16.1-4.3-4.1-9.3-7.8-13.5-12-.4,1.9,1,2.4,2,3.5,4.3,5.2,22.3,20.1,23,25,.5,3.5-5.6-.3-6.5-1.5l-2,2-7-8,5.5,10c-9.6.3-10.8-6-16-11.5-6-6.4-13.2-13.3-19.7-19.3-1-1-1.3-2.7-3.4-2.1,8.5,12.3,22.5,20,29,34-2.2.2-3.6.2-5.6-.9-3-1.7-10.3-11.7-13.9-15.1-2.9-2.8-6.6-5.1-9.5-8-.4,1.9,1,2.4,2,3.5,6,7.1,14.7,12.3,18,21.5-1.8.3-3-.2-4.6-.9-3.6-1.7-22.3-21.2-23.4-20.1l3.9,5.5c3.3,3.5,7.4,5.8,10.6,9.5.7.8,7.4,8.6,3,8-5.5-.7-24.2-22.5-25.5-21,.3,3.9,5.2,5.7,7.4,8.1,1.2,1.4,8.7,10.2,9.1,10.9.5,1,.6,1.9.5,3-1.4,0-2.9.2-4.3-.2-2.1-.7-29.1-28.1-32.2-31.8-1.5-1.8-1.8-4.2-3.5-5-.3,1.7.4,2.9,1.1,4.3,3.1,6,16.3,15.5,21.5,21,1.7,1.7,9.4,10.7,9.3,12.2-2.2,2.2-5.6,3.2-7.9.9-7.8-11.6-23.8-18.8-25.1-33.9-2-22.7,0-51.9,0-75,0-11.6-2.4-32,1.1-41.9ZM383.6,153c4,4.7,9.3,8,13.5,12.5,1,1,7.1,8.2,6.5,9-.3.4-3.7,1.1-5,.6-1-.4-14.1-13.7-15.6-15.5-3.4-4.2-5.6-8.3-5.5-14l6,7.5ZM391.1,170.5l4.5,7-6,1.6c-4.9-6.9-11.8-12.3-12-21.6l13.5,13ZM379.6,231.5l28,30c-2.8.2-4.8.1-7.4-1.1-3.1-1.6-20.9-19.2-21.6-21.6-.5-1.9.2-4.7-1.1-6.7l2-.5ZM379.6,243.5l1,2.5,18,16.5c-6.3.3-20.9-13.1-21-18.5l2-.5ZM377.6,274.5l1-4.5,3.5,6.5c-4.2-.8-8.2-2-8.5-7l4,5ZM372.6,245.5c-4.6-3.1-7.8-8-12-11.5-.8-.7-2-2.6-3-1,4.8,7.6,15.7,12.3,14,22.5-1.5,1.8-6.7-6.2-7.5-7l-10.5-8c2.7,5.6,11.3,9.7,13.5,15,1.3,3.3.5,2.5-2,4l-1-2-.5,3-17-19,14,19.5c-1.8,1.3-5.5-1-5,2.5l-5.5-5,1,5c-4.7-.4-6.5-1.1-9-5l.5,5c-.3.4-6-2.6-6.5-2.6-1.4,0-3.4,4.2-4.5-1.4h-2c-.8,4.6-5,4-6.5,0-2.1,4.7-8.1,2-12,1.9-21.5,0-42.6.6-63.9,0-1,0-2.4-1.1-2.6-.9,1.1,5.1-8.2,14.8-12.5,15-2.4.1-1.8-1.4-1-3l12.5-11h-13s1,2,1,2h-2c-1.3-7-11,1.5-13.5-5l-.5,3c-2.9-.9-7.5.2-8.5-3l-.5,3c-2,.7-4.3-1.7-5.5-1.6-.9,0-2.1,2.1-3.9,1.6-1.9-.5-7.3-11.6-11.1-12l7.5,9.5,1,3.5c-4.9-1-7.1-1.1-10.5-5l.5,4c-7.3,1.2-10.7-6-15.5-10-.5,3.7,5.4,5.9,6.5,9.5-1.1,1-4,.7-5.3.3-1.2-.4-14.7-13.2-16.7-15.3-6.2-6.2-14.9-15-20.5-21.5-.6-.7-3.7-4.8-3.5-5h241c.2,2.2.4,3.2-2,3v1c5.4,1.2,3.5,9.5,5,14-3.7-3.6-6.4-10.2-10.3-13.7-.7-.6-3-2.2-3.7-.8,5.3,6.3,12.5,13.9,13,22.5ZM144.1,3.5c16.6,2.3,33.3,5.5,50,7,26.9,2.4,57,3,84,1,18.2-1.3,36.3-5.3,54.5-6l-61.5,8c-27.3,3.6-53.8,1.1-81-2-17.2-2-34.4-5.2-51.5-7.5l5.5-.5ZM100.6,62c-2.7-9.5-2.8-23-2-33,1.6-20.3,13.6-23.6,31.5-22.5,22,1.5,45.8,7.6,68.1,9.9,36.6,3.7,70.4,1.2,106.7-3,14.5-1.7,46.8-10.4,58.6-2.3,2.8,1.9,6.4,5.8,6.1,9.4l-7.5-8c-1.2-.4-2,.2-1.5,1.5,1,2.4,7.2,7.9,9.2,11.8.4.8,3.6,8,.3,6.7l-16-16c-.7-.2-.7,1-.5,1.5,1.5,3.3,11.8,10.5,14.4,14.6,2,3.1,2.7,7.4,3.5,10.9-1.9.4-2.4-1.1-3.5-2-5.9-4.9-11.1-11.9-17-17-.7-.2-.7,1-.5,1.5.8,1.8,7.6,7.2,9.5,9.5,4.9,5.7,11.9,13.2,10.5,21l-21.5-21-.5,1.5c7.2,7.9,15.7,14.5,21.5,23.5l.5,5c-7.6-5.5-13.9-12.5-21-18.5-.8-.7-2-2.6-3-1,7.4,10.6,24.1,17.4,24,31.5l-28-23.5c2.6,4.2,6.9,8.1,10.5,11.5,6.2,5.9,17.5,13,17.6,22.5,0,1.1.6,2.8-1,2.5,0-1.1-.7-2.3-1.4-3.1-7.9-7.4-16.9-13.7-24.1-21.9-.7-.2-.7,1-.5,1.5,2,4.5,18.3,16.7,22.4,22.6,2.9,4.1,5,9.9,4.6,14.9l-6.5-8-1,2-24.5-23.5c10.9,14.5,29.9,25,32,44.5l-30-31.5-3-1c7.2,7.4,14.8,14.7,21.5,22.5,4.4,5,12.8,12.5,12,19-7.5-5.4-13.5-12.7-20.5-18.5-.8-.7-2-2.6-3-1,7,10.2,22.7,17.1,22.5,30.5l-20-18c-.7-.2-.7,1-.5,1.5,1.5,3.4,13,11.8,16,15.3,3,3.5,5.7,8.5,6,13.2-6.9-6.3-13.9-12.5-21-18.5-.8-.7-2-2.6-3-1,8,9.7,23.2,16.7,24,30.5l-20-17.5-11-11c7.1,11.5,18.7,19.4,28,29l-2,1c3.7,3.8,5,9.3,5,14.5l-6.9-10.5c-8.4-6-15.2-13.3-22-21-1.1-1.2-3.3-3.9-5-4,9.5,15.9,28.7,25.2,34,43.5-14.4-15.5-30.8-28.7-45.5-44l1,3,36.5,38-21.5-13-27-28c-1.6,1,.3,2.2,1,3,3.8,4.5,9.1,8.5,13,13l11.5,15c-5-1.6-9.3-3.7-13.5-7-5.1-4-18.5-21.4-22-23-.4-.2-1.6-.3-1.5.5l21,24.5c-10.3-1.8-16.2-11.5-23.5-18l1,3,9.5,12c-6.9.7-10.1-4.9-14.5-9-1.9,1.2,6.8,9.4,2,8-7.7-2.2-16.3-16-23-21l-1.5.5c5.4,5.2,10.6,10.8,15.5,16.5.7.8,2.6,2,1,3-16.1-2.4-23.9-20.5-37-29-1.7,1.2.4,2.1,1.2,2.8,4.7,4.3,9.5,8.5,13.8,13.2l9.5,12c-4.6,3.9-20.5-15.3-24-18.5-3.5-3.2-7.7-6.6-11.5-9.5l25.5,27.5c-4.7.2-8.3-1.4-11.9-4.1-5-3.7-15.9-17.7-19.6-19.4-.4-.2-1.6-.3-1.5.5l21,21c1.2,2.8-5.6,1.2-6.7.7l-26.7-24.3,23.5,26c-1.4,0-2.9.2-4.3-.2-2.3-.7-21.4-18.1-24.8-21.2-9.3-8.6-17.5-18.5-27.5-26.5l-1,1,47.5,46.5-7.2-.8-62.3-58.7-1.5.5c20.3,19.7,41.2,38.8,60,60-7.9,2.1-13.4-9.2-18.8-14.4-7.9-7.7-17-14.2-25.2-21.6-3.6-3.2-6.8-7.4-10.5-10.5-1.1-.9-1.6-2.4-3.5-2,14.4,17.9,35.7,29,48,48.5-2.1,1.7-4.2-1.1-5.5-2.5l-2,2c-12.1-12.5-23.6-25.7-37-37-1.1-.9-1.6-2.4-3.5-2,11,11.2,21.7,22.7,32.5,34,.6.7,11,8.6,4.4,6.6-8.1-2.5-13.6-14.7-21.9-18.6-.4,1.9,1,2.4,2,3.5,4.6,5.5,10.7,10.1,15,16-.9,1.4-3-.5-3.9-1.1-6.2-4.5-16.2-17.7-22.1-23.9l-10-9.5,29,33.5c.5,2.4-1.9,1.7-3,1-1.6-.9-5.1-7-6.9-9.1-9-9.8-19.2-18.6-29-27.5l2,3.5,32,34-3.5-.5-28.4-28,9.5,12c4.3,4.8,9.9,9.1,14,14,.7.8,2.6,2,1,3-11.6-9.1-20.4-20.9-30.5-31.5-4.6-4.8-10.9-9-15.6-14.4-5.7-6.7-9.9-15.1-15.8-21.7-6.5-7.1-19.9-14.1-18.2-25.3,10.2,8.4,18.9,18.5,28.6,27.4,2.7,2.5,6.5,6.2,9.9,7.6l-36-35.5c-2-2.7-3.6-6.7-4-10-.4-3,2.1.4,2-1ZM43.6,104.5c16-3.3,37.2-6.6,53.3-2.8,9.9,2.4,24.1,16.8,27.8,26.2,5.3,13.6,5.6,39.3,5,54.1,0,1.2.8,3.7-1,3.5.9-14.6-1.3-28.8-3.3-43.2l-2.7-9.8c.7,8.8,1.3,17.6,2.1,26.4.2,2.7,1.7,5.3,1.9,8.1.3,4.3.2,9.7,0,14,0,1.2.8,3.7-1,3.5v-16.5c0-.2-1-4.8-2-4.5-.6,8,1.4,16.5,1,24.5,0,1.1-.4,4.6-2,4.5l-.2-31.5-1.8-11.5v46l-2.9-19.6c1.1-4.9,1.1-9.9.9-14.9,0-1.2.8-3.7-1-3.5.3,9.1-1.6,18.4-2,27.4-.2,4.1.8,7.6.8,11,0,.9-.4,5.5-1.8,5.5v-33c-1.8-.2-.9,2.3-1,3.5-.4,10.6.4,20.1-1.3,30.7-.2,1.2-.2,4.9-1.7,4.8.6-29-3-61.9-23.5-84-8.8-9.5-21.4-14.9-34.1-16.9-1-.2-12.7.5-9.4-2.1ZM29.1,190.5c-14-9.3-24.8-22.7-23.5-40.5,3.3-46,57.2-50.7,83-18.9,24.4,30,14.9,77.9,15,114,0,16.3,2.2,34.8,2.1,50.9,0,5.1-2.6,11.2-2.1,16.5-1.7.2-.9-2.3-1-3.5-.3-6.7.3-13.4,0-20.1-.3-9.6-1.9-20.4-2.1-29.9-1-43.4,14.6-140.3-51.4-141.6-7.2-.1-11.2,2.1-17.5,3.6-1.8.4-3.3-.9-5.8.2-2.6,1.1-9.8,9.2-11.2,11.9-8.2,16.1-4,35,7.9,47.9,2.1,2.2,6.4,4.5,7.5,6.5.7,1.2,1.4,3.4-1,3ZM13.6,157.5l6.6,10.9c1.5,2.4,15.3,13.8,13.4,16.1-9.4-6.1-17.7-15.8-20-27ZM33.5,336c0-2.8,1.1-5.3,1.1-8,.5-43.3-.4-86.7-.1-130.1l3.1-2.5v150c-2.3,2.9-4.1-8.2-4.1-9.5ZM43.1,339.5l8.5,7c-2.4,0-7.1,0-9-1.5-1.9-1.7-3-7.7.5-5.5ZM53.6,363.5c-2.3,2.3-10.9-9.1-10-10l9.8,7.2c.5.8.2,1.9.2,2.8ZM41.6,328.5l21,18c-9.3-.3-22.4-7.3-21-18ZM74.6,363.5c-1.7,1.7-9.9-9.8-11-11,.8-.7,3.7,1.2,4.5,2,.7.7,7.1,8.4,6.5,9ZM79.1,345.5c-7.6-.6-16.1-12.1-22-17-1.1-.9-1.6-2.4-3.5-2l19,19.5c-4,1.3-9-2.5-12.3-4.7-6-4-17.9-13-18.3-20.5-.7-14.4-.2-31.9-.4-46.8-.4-25.3,1.4-51,.8-76-.3-11.4-2.1-26.7-14.8-30.5,1.5,3.5,7.9,5.9,7.5,10-10.9-8.7-19.2-17.7-19.5-32.5-.4-20.5,26-26.4,42.1-23,52.7,11.3,37.1,92.4,37.9,131.1l4,61.5-2,.5,4,10.5-11-6.5c4.4,3.8,7.5,7.7,10,13l-2,1.9,3,5.5-18-15.5c3.5,5.5,8.8,9.1,12.6,14.5.6.8,4.3,6.1,3.4,7l-9.5-6-21-21c-1.6,1,.3,2.2,1,3,5.3,6.3,13.8,15.9,20,21,1.6,1.3,4.1,1.3,4.5,3-13.9,1.7-20.2-13.1-30-20l8.5,11,9.5,8c.3,1.6-2.5,1.1-3.5,1ZM85.6,365c2.6-4.2,5.4-7.1,4.4-12.5.8-1,1.9-.9,3-1,14.1-1.6,34.2.1,49.1,0,96-.3,191.9-.9,288-1.1,72.2-.2,145.4,2.9,218,1.1,4.1-.1,8.1-1.8,12.3-.9l3.3,8.2,5.8,6.7-584-.5ZM677.6,363.5c-.9.8-2.3-.9-3-1.5-.8-.7-6.6-7.9-6-8.5,3.7.3,5.5,4.9,7.4,7.6.2.2,3.4.8,1.6,2.3ZM674.6,354c-.6-2.7,2.3-.5,2.7-.1,2.6,2.6,4.1,6.7,6.3,9.6-2.1,1.9-7.6-8.5-9-9.5ZM689.6,353.5c4.5.2,7,6.6,11,9-3,2.1-12.1-8-11-9ZM706.6,363.5c-2.1.4-2.3-1.1-3.2-2.3-2.2-2.8-4.1-5.3-6.8-7.7,3.9-2.6,10.6,9.4,10,10ZM693.6,315c3.6,7.9,19.5,15.8,18,26.5l-23-21.5,7,10,14,15.5c-13.2-4-20.8-17-30.5-26-1.6,1,.3,2.2,1,3,6.6,7.8,13.2,17,21.5,22.5-.7.9-3.4.6-4.4.4-6.3-1.2-19.2-18-25.1-22.9-1.1-.9-1.6-2.4-3.5-2l23,26c-1.4,0-2.9.1-4.3-.2-6.4-1.5-24.8-20.4-28.5-26.5-4.4-7-2.2-5.1-2.4-11.8-.9-39.7-2.9-84.2-.8-124,.6-12.1,3.1-32.8,10.5-42.5,24.7-32.5,80.2-26.3,69,22-2.2,2.7-6.2-1.4-6.5-1-1,5.2,6.4,4.7,5,9.3l-2.6,1.7c-.9-1.7-3.9-4.9-5.5-5.5-5.1-2.1-15.9,14.8-15.9,19v130.5l-7.5-7c-.7-.2-.7.9-.5,1.5.8,1.9,6.2,6,7.8,9.2.9,1.9,1.9,5.8,2.1,7.9.1,1.1.9,3.6-.9,3.4-2.7-7.8-11.4-12.7-16.5-19-.7-.2-.7,1-.5,1.5Z"/>
  <rect x="380.6" y="49.5" width="1" height="79"/>
  <path d="M632.6,64.5c.3,1.8-2.2.9-3.1.6-3.7-1.6-15.7-15.2-18.9-19.1s-2.4-1.6-2-3.5c8.7,6.6,14,16.8,24,22Z"/>
  <path d="M447.6,150.5l-6-4.5-9-11.5c4.3,4,9.2,8,13,12.5s2.4,1.6,2,3.5Z"/>
  <polygon points="526.6 149.5 516.6 135.5 528.1 147.5 526.6 149.5"/>
  <path d="M121.2,80.9c6.6,6.3,13.4,12.6,19.4,19.6-1.9.4-2.4-1-3.5-2-10.9-9.2-20.6-21.2-31.5-30.5-.2-.7,1-.7,1.5-.5,2.7,1.2,11.2,10.7,14.1,13.4Z"/>
  <path d="M152,328.1c3.5,3.7,10.3,14.2,14.1,15.4s1.6.3,1.5-.5l-4-6.5c3.6,2.7,8,6.4,13,5.5l-18.5-18.5c9.4,5.3,16.8,19.8,28.5,18.5-1.1-1.6-10.3-9-9-10.5,6.7,6.3,11.3,11.6,21.5,11l.5-2c-2.5-.5-5.9-3.4-6.5-6,5.5,4.3,9.5,7.7,17,8v-2c3.1.8,5.7,2.4,9.1,2.1s.3-1,5.9-1.1c27.4-.4,54.8,2.4,82-.1,88.1,3.9,180.5-5.1,268.1,0s6.5.9,9.9,2.1l-2-4c3.2,1.2,6.4,3.9,10,4s1.6-.2,1.5-2c-2.1-.7-7-5.5-6.5-8l7,7,8.5,4c-7.2,0-14.4.1-21.5,0-136.8-1.4-275.8-1.9-413-.9-4.7,0-10,1.6-14.8-.4-1.6-2.7-4.8-3.6-6.6-5.3s-10.7-12.1-11.1-12.9-.3-1.6.5-1.5c7.4,5.7,14.3,19.5,24.5,18.5-4.8-5.1-8.6-11.1-13.3-16.2s-8.3-5.1-7.2-8.3c3.5,3.7,7.5,6.8,10.9,10.6Z"/>
  <path d="M449.6,258.5c-1.9.4-2.4-1-3.5-2-5.6-4.7-10.5-10.7-15.5-16,1.9-.4,2.4,1,3.5,2,5.6,4.7,10.5,10.7,15.5,16Z"/>
</svg>