<?xml version="1.0" encoding="UTF-8"?>
<svg id="_レイヤー_1" data-name="レイヤー_1" xmlns="http://www.w3.org/2000/svg" version="1.1" viewBox="0 0 440 650">
  <!-- Generator: Adobe Illustrator 29.0.1, SVG Export Plug-In . SVG Version: 2.1.0 Build 192)  -->
  <defs>
    <style>
      .st0 {
        fill: none;
      }
    </style>
  </defs>
  <polygon class="st0" points="204.5 24.4 199.5 24.4 200.5 35.4 205.5 35.4 204.5 24.4"/>
  <rect class="st0" x="290.5" y="28.4" width="4" height="10"/>
  <path class="st0" d="M274.5,37l1.9-6.6.2,5.8,4.8,1.1v-10s-12,0-12,0c.2,4.5-1.9,11.9,5.1,9.6Z"/>
  <polygon class="st0" points="296.9 29.4 296.5 38.5 301.5 38.5 301.5 28.4 296.9 29.4"/>
  <polygon class="st0" points="310.6 30.1 310.5 39.4 314.3 38.3 314.4 29.6 310.6 30.1"/>
  <path class="st0" d="M307.3,28.6l-3.8-.2v10s3.9,0,3.9,0c.3-3.5,1.9-6.5,0-9.8Z"/>
  <path class="st0" d="M267.3,35.8l-1-9.2-3.8-.2c0,4-1.2,15.1,4.8,9.3Z"/>
  <polygon class="st0" points="255.5 26.4 255.5 36.5 260.5 36.5 259.3 26.6 255.5 26.4"/>
  <polygon class="st0" points="230.4 25.5 227.5 25.4 227.5 36.5 231.5 36.5 230.4 25.5"/>
  <path class="st0" d="M221.5,24.5v12s4,0,4,0c.5-.5.1-13-4-12Z"/>
  <path class="st0" d="M218.5,35.5l-.4-10.1-4.6-.9c2.3,3.7,0,7.1,0,11h5Z"/>
  <path class="st0" d="M246.5,36.5l-1.1-9.9h-4.9c0-.1.1,8.2.1,8.2.8,2.3,3.9,1.6,5.9,1.6Z"/>
  <polygon class="st0" points="248.5 26.4 248.5 36.5 253.5 36.5 252.3 26.6 248.5 26.4"/>
  <polygon class="st0" points="210.5 24.4 207.5 24.4 207.5 35.5 211.5 35.4 210.5 24.4"/>
  <rect class="st0" x="233.5" y="26.4" width="5" height="10"/>
  <path class="st0" d="M284.5,27.5v11s3,0,3,0c-.6-3.5,2-10.8-3-11Z"/>
  <path class="st0" d="M20.9,49.4c22.2-5.7,45.3-6.8,68-9l15.5-2.5-4.5-1.6-79.4,9.2.4,3.9Z"/>
  <path class="st0" d="M403.5,32.4c-1,3.1-.4,7.5-4,9,0-2.9,0-7.4-3-9v11s11,0,11,0c-.2-4.7,1.7-9.5-4-11Z"/>
  <path class="st0" d="M388.5,42.9l-1-11.5h-3c.5,4-2.2,13.8,4,11.5Z"/>
  <path class="st0" d="M321,38.5l.4-9.1h-5c1.5,3.2,1.5,6.8,0,10l4.6-.9Z"/>
  <polygon class="st0" points="412.5 33.5 409.6 35.1 409.5 43.5 413.5 43.4 412.5 33.5"/>
  <path class="st0" d="M103.5,47.9c-.1-1.1,0-2.2-1-3l-3.1-.4v401l4-.6c-.5-101.3,1.1-202.8-1.1-304-.6-28.7,4.4-64.9,1.1-93Z"/>
  <path class="st0" d="M376.5,41.9l-1-10.5h-3c.4,3.9-1.9,12.8,4,10.5Z"/>
  <path class="st0" d="M419.5,33.5c-5.9-1.9-4.5,10-2.5,10,1.8-1,3.1-9.3,2.5-10Z"/>
  <polygon class="st0" points="381.5 31.4 378.5 31.4 378.5 42.5 382.5 42.4 381.5 31.4"/>
  <polygon class="st0" points="339 31.4 333.5 30.4 333.5 39.4 338.5 40.4 339 31.4"/>
  <polygon class="st0" points="326.5 29.4 325.5 40.4 330.5 38.8 331.5 29.4 326.5 29.4"/>
  <polygon class="st0" points="341.5 30.4 341.5 40.5 346.5 40.4 345.5 30.4 341.5 30.4"/>
  <path class="st0" d="M354.5,31.5l1,10h3c.4-.4-.3-11-4-10Z"/>
  <rect class="st0" x="348.5" y="30.4" width="5" height="10"/>
  <path class="st0" d="M364.5,40.9l-1-10.5h-4c-.8.8.6,14.2,5,10.5Z"/>
  <path class="st0" d="M370.5,40.9l-1-9.5h-3c.2,3.8-1.6,11.8,4,9.5Z"/>
  <rect class="st0" x="390.5" y="32.4" width="4" height="11"/>
  <path class="st0" d="M310,81.4l77.5,2c.3-1.4-.4-2.4-1.7-2.8-1.2-.4-9.6-1-11.8-1.2-15.9-1-32-1-48-1l-25.5-2c.2,4.8,6.1,4.1,9.5,5Z"/>
  <path class="st0" d="M390.5,411.4l-2.4-2.9c-16.3,2.1-32.7,1.9-49.1,3-10.2.7-20.8,1.2-30.9,2.1-1,0-11.4,1.4-8.6,3.9l91-6Z"/>
  <path class="st0" d="M296.4,407c0,1.4.1,5.3,2,5.5l-1-187c-4.3,3.6-1.1,11.5-.9,16.5,1.4,54-3.5,111.8,0,165.1Z"/>
  <path class="st0" d="M382.4,207c-.4-39.5.7-79.2-.4-118.6l-1.2-.8-78.4-3.1c.6,40.5-.5,81.1-1,121.5-.2,16.6.9,32.4,1,49,.4,51.5-.4,103.1,0,154.5l76.5-4,3.3-2.7c-.3-34,2.3-67.8,2.2-101.8,0-31.1-1.8-62.9-2.1-93.9Z"/>
  <polygon class="st0" points="297 77.4 295.4 209 298.5 211.4 297 77.4"/>
  <path class="st0" d="M143.5,74.4c-1.6,44.3.2,88,0,132.5,0,2.6-1.1,5.1-1.1,7.9-.2,67.7-.5,135.5,1,203.1l2,1.5V75.9c0-.2-1.3-1.6-2-1.5Z"/>
  <path class="st0" d="M274.6,51.1l.9,389.4,140.9-5.1-1.1-378.8c-46.4-2.7-92.9-4.5-139.2-7l-1.5,1.5ZM406.5,398.4h-5c0-9.4-1.7-18.6-1-28l6,1v27ZM405.5,91.4v26l-3.3.8c-4.3-.7-2.5-16.2-2.6-20.3-.1-5.7-3.6-9.2,6-6.5ZM291.5,207.9l.9-136.4c5.6.3,11.9,1.8,17.5,2,24.4,1.1,52.2-.7,76,2,3.5.4,6.2,2,9.4,3.1l1.9,335.2-2.1,1.9-100.1,5.5c-3.1-.9-3.5-9.9-3.7-13.3-.6-9.5,1-18.9,1.1-28,.4-50.6-.6-101.1-1-151.5-16-.6-15.9-18.6,0-20.6Z"/>
  <path class="st0" d="M291.5,222c5.9-1.8,1.8-7.9-2.4-6.5-2.6.8-3,8.2,2.4,6.5Z"/>
  <path class="st0" d="M420,274.4c.2-.4.4-.7.6-1.1v-16.7c-.9,5.7-1.2,11.6-.6,17.8Z"/>
  <path class="st0" d="M247.5,416.5c-24.6-.5-49,1.4-73.5,3-8.6.6-17.3,0-25.8,1.2l-1.2.8-.4,3.1c15.9.8,31.7-2,47.5-3,17.3-1.1,34.8-.9,52-3,1.4-.2,3.2-.7,1.5-2Z"/>
  <path class="st0" d="M390.5,85.4h-3c-1.4,12.4-1.2,25-1,37.5.6,49.9,1,100,2,150,.5,27.2,2.3,53.9,1.1,81-.7,14.3-4.6,33.9-3.1,48,.4,3.9,3.7,5.8,4.1,1,5.1-71.7,1.8-143.9,2-216.1,0-11.2,1.3-22.6,1.1-34-.1-8.8,0-22.7-1-31-.2-1.5-.2-3.1-2-3.5.4,31.5,0,63-1,94.5,0,.9.4,3.6-1,2-.8-14.1,1-28,1.1-42,0-9.3-.1-18.6,0-27.9.2-19.9.6-39.7,1-59.5Z"/>
  <path class="st0" d="M413,48.4c-64.6-4.8-132.2-6.6-197-9-9-.3-18.1.3-27.1,0l-81.4-4,.5,3.8c40.9,3.3,82,2.7,122.9,4.1,58,2,115.9,5.5,174,7,3.9,0,9.1,3,12.4-.5-1.2-1.8-2.6-1.4-4.4-1.5Z"/>
  <path class="st0" d="M121,15.5c94.9,6.8,193.8,10,289,13,8.5.3,16.8,2,20.5-7-23.2,2.8-46.6-1.3-70,0v-1s30,0,30,0v-1c-10.5-.4-21.1.5-31.5,0-72.8-3.1-146.1-9.4-218.9-11.1-13.2-.3-26.4.3-39.5,0,2.5,10.3,12.2,6.4,20.5,7ZM280,16.4l21.5,1.1c.2,1.7-2.3.9-3.5,1-9.9.4-19.7-.8-29.5-1.5l11.6-.5ZM236.5,16.5l-3.5,1c-31-1.2-61.9-4-93-4l-3.5-1c33.4-.9,66.7,2.3,100,4Z"/>
  <path class="st0" d="M268.5,49.4l-144-5c-1.4,48.3-1.2,97-1,145.6.2,56.7,2,114,1.1,171-.1,6-1.8,12.5-1.1,19,1.5,14.1.5,21.9,0,35.9-.3,10.2.3,20.4,0,30.5l146-6v-213.5c0-.4,2.6-1.8-.5-1.5-5.8,7.6-18.8-3.2-14.6-10.6,4-6.9,10.5-8,17-3.4l-3-162ZM250,422.4c-6.8,1.2-16.8,1.5-24,2-9.6.7-19.4.4-29,1-18.8,1.1-37.5,3.7-56.4,2.9-2-1.2-.9-18.7-1.1-22.4-2.7-62.8,0-126.2,0-189,0-45.1-3.8-94.2-1-139,.2-3.5,1.3-6.9,1-10.5l112.4,3.1.5,350.2c-.3,1.3-1.2,1.4-2.4,1.6Z"/>
  <rect class="st0" x="166.5" y="23.4" width="5" height="10"/>
  <path class="st0" d="M144.5,22.5h-6.5c-.6,2.1-1.2,8.3.5,9.6l6,.4v-10Z"/>
  <path class="st0" d="M164.5,32.9v-9.5s-4,0-4,0c.2,3.8-1.7,11.8,4,9.5Z"/>
  <path class="st0" d="M151.5,32.5l-.4-9.1-5.6-.9c.8,3.2.8,5.8.4,9l5.6,1Z"/>
  <polygon class="st0" points="153.5 22.4 153.5 32.5 158.5 32.5 157.3 22.6 153.5 22.4"/>
  <polygon class="st0" points="191.4 23.5 188.5 23.4 188.5 34.5 193.5 34.4 191.4 23.5"/>
  <path class="st0" d="M184.1,34.3h3.4c0,.1-1-10.9-1-10.9h-4c.4,2.6-1.3,9.9,1.6,10.9Z"/>
  <path class="st0" d="M180.5,33.5l-1.1-9.9h-4.9c0-.1,0,10.8,0,10.8,2.5-.3,3.2-2.4,6-1Z"/>
  <path class="st0" d="M129.5,22.4h-4.9c-.8,3.2-1.7,5.9,0,8.9h4.9c0,.1,0-8.9,0-8.9Z"/>
  <path class="st0" d="M262.5,215.5l.9,5.6c9.6,2.1,6.9-6.5-.9-5.6Z"/>
  <path class="st0" d="M194.5,23.5v11s4,0,4,0c-1.9-3.5,1-10.8-4-11Z"/>
  <path class="st0" d="M131.5,21.5v10s5,0,5,0c-.3-3.6.2-10.9-5-10Z"/>
  <path class="st0" d="M242.9,74.5l-94.5-2.5c-.2,1.5,0,2.8,1.7,3.3,1.3.4,10.5,1,12.9,1.1,15.5.8,31.5,1.6,46.9,2.1,12.2.4,24.4-.4,36.5,0,.2,2.6-1,4.9-1,7.5-1.8,50.8,0,102.4,0,153,0,54.2-3.1,113.6,0,167.1.1,2.2.3,4,.9,6.1.5,1.7-.7,2.8,2.1,2.3V80.9c0-1.6-3.3-6.5-5.5-6.5Z"/>
  <path class="st0" d="M109.6,445.8c1.9,3.1,6.2,1,8.9,0,1.4-1.9,2.2-25.1,1.9-28.9-1.6-20.6,0-36.6,0-57.1-.1-86.4-.9-173.4-2.1-259.9l1.1-56.6-11,.6c-.1,34.7.2,69.3,0,104-.3,82.1.2,166.2,0,248.9,0,7.6-1.1,45,1.2,48.9Z"/>
  <path class="st0" d="M149.5,79.4v336l92-4c-.1-2.2.2-4.4,0-6.6-3.3-66.1-1-133.8-1-199.9,0-40.8,0-81.7,0-122.5l-91-3Z"/>
  <polygon class="st0" points="114.3 30.3 115.5 24.5 116.4 31 122.5 31.5 122.5 21.4 105.5 22.5 105.5 30.4 110 29.5 111 31.5 114.3 30.3"/>
  <path class="st0" d="M71.5,34.5h5s-.5-9-.5-9h-7.5s0,10,0,10c3.8.8,1.3-5.8,2-8l1,7Z"/>
  <path class="st0" d="M95.4,501c-.3-11.5,1-23.2-1-34.5l-2,1.5c-.7,27,.9,54.1,0,81.1-.1,4-4,13.5,2.5,13.5,2.7-.4,1.7-48.6,1.6-53.6,0-2.9-1-5.3-1.1-7.9Z"/>
  <path class="st0" d="M97.5,568.5c-.9,4.9.9,9.9,1,14.5.5,16.3-1.8,36.5,0,52.1.2,1.5.2,3.1,2,3.5v-67.5c0-.8-1.3-3.4-3-2.5Z"/>
  <path class="st0" d="M93.5,590.9c0,.3,1.1,5.6,2,5.5v-8.5c0,0-2-20.5-2-20.5v23.5Z"/>
  <path class="st0" d="M103.5,575.9v63.5h1v-71h-1c-1.2,2.7,0,5.7,0,7.5Z"/>
  <path class="st0" d="M110.5,470.9c-.5,18.7-.8,37.3-1,56-.2,23.3.6,46.6,1,69.9.2,14.5-.3,29.1,0,43.5h7.4c0-.1,1.6-2.5,1.6-2.5v-169.5s-7.4.1-7.4.1l-1.6,2.4Z"/>
  <path class="st0" d="M103.5,489.4l-2-12.5c-.4-3.2,1.2-7.3-1.5-9.5-1.5.9-1.4,1.9-1.5,3.4-1.5,13.7.9,28.4,1.1,42,.1,13.3.3,26.8,0,40.1,0,3.2-2.1,6.2.2,9.3l4.8,1.2,1-93.5-2-1.5v21Z"/>
  <path class="st0" d="M85.5,465.5l-1,96h4c1.9-31.5.8-63.2.8-94.8l-3.8-1.2Z"/>
  <path class="st0" d="M34.5,559.4v64h2v-62.5c0-.2-1.4-1.6-2-1.5Z"/>
  <path class="st0" d="M47.5,462.5c2,12.8,0,25.6,0,38.5,0,1.9,1,3.8,1,6,.1,16-.3,32,.1,47.9.2,1.8,4.7,2.4,4.9,1.1v-93.4s-6,0-6,0Z"/>
  <path class="st0" d="M40.6,465c-1.8,14.5.7,30.4.9,44.9.2,14.6-.4,29.2,0,43.9l4,1.7v-94c-3.8-.4-4.4-.1-4.9,3.6Z"/>
  <path class="st0" d="M37.4,484.9l.9-23.3-3.8-1.2v91.5c0,.2-1,.8-1,1.5,3.4,1.3,4.6.3,5.1-3.4,2.5-19.8-1.6-44.9-1.1-65.1Z"/>
  <polygon class="st0" points="62.5 463.5 63.5 558.5 68.5 558.5 67.5 463.5 62.5 463.5"/>
  <path class="st0" d="M75.5,487.9c0-2.4-1-4.6-1.1-6.9-.2-3.2.9-15.7-.9-17.1l-3.1-.4v96s5,0,5,0c-.7-23.8.9-47.8,0-71.5Z"/>
  <path class="st0" d="M60.5,464.9l-.9-2.1-4.1-.4v93.5c0,.6,4.2,3.1,5,2.5,0-1.2.9-2.3.9-3.6.4-12.4-.9-25.3-1-37.9-.1-17.3.2-34.7,0-52Z"/>
  <path class="st0" d="M321.5,557.4h-3v49h4c.6-1.4-1-3-1-3.5v-45.5Z"/>
  <polygon class="st0" points="77.5 464.4 77.5 560.4 81.5 560.4 82.5 466.9 81.5 464.9 77.5 464.4"/>
  <path class="st0" d="M168,458.5c-20.3.7-40.6.8-60.9,1.1l-1.7,2.8c1.8.5,3.5.9,5.4,1.1,14.4,1,33.4.5,48.1,0,34.2-1.1,68.7-3.6,103-5,47.9-1.9,96.2-3.2,144-6,6.9-.4,14.7-2.1,21.5-1v-4s-51.5,2-51.5,2c-69.2,2.6-138.6,6.5-207.9,9.1Z"/>
  <path class="st0" d="M421.4,487c0-10.2.1-20.4,0-30.5l-297,12-1,96,283.4-18.1,1.2-.8,1.4-72.6,2-10.5c2.9,23.4,1.9,47,2.1,70.5,0,7.1-.1,13.9,0,20.9,0,18.7-2.1,45.5,0,63.1.4,3.4,1.8,4.3,5.3,3.3,5.2-1.5,1.6-9.1,1.7-12.4.7-40.4,1.3-80.7,1-120.9ZM397.5,530.4l-257.9,16.9c0-.8-1.1-2-1.1-2.4v-56c0-.3,1.2-3.5,1.6-3.6l100.8-7c6.3-.2,12.8.4,19.1,0,37.3-1.7,74.7-4.1,111.9-5.1,5.8-.2,18-.9,23,0,1.1.2,1.9.5,2.5,1.5v55.5Z"/>
  <path class="st0" d="M331.5,560c-1.8,10.4-2.5,25.2-3.1,35.9-.2,3.8.2,7.7,0,11.5,2.2.8,4.6-1.6,5-3.5v-43c0-.5,1.6-2.1,1-3.5-1.9-.3-2.7.8-3,2.5Z"/>
  <path class="st0" d="M357,442.5c-72.5,2.4-144.6,6.2-217,9-5.5.2-29.3-1.1-32,.9l-.6,3.1c42.9.5,85.6-2.2,128.5-4,61.5-2.5,125.9-3.1,187-8,1.2,0,5.4-.4,5.5-2-1.8-.5-3.5-.9-5.4-1.1-20.8-1.3-45,1.4-66,2.1Z"/>
  <path class="st0" d="M266,530.5c-31.6,3.2-63.3,4.9-95,7-8,.5-16.2-.9-24,1.9l-.6,3.1c32.8-2.3,65.7-4,98.5-6,16.3-1,32.7-2.9,49-4,31.8-2,65.5-1.4,97-6,1.7-.3,1.7.5,1.5-2l-126.5,6Z"/>
  <path class="st0" d="M390.5,480.5c.1,11.8-2,23.7-1.1,35.5.1,1.8-.2,3.3,1.6,4.4l2.5-1.5v-35c0-.6-.9-4.4-3-3.5Z"/>
  <path class="st0" d="M143.5,492.4c0,6.3-2.8,45,0,47,.6,0,1.9-1.2,2-1.5v-44c0-.2-1.3-1.6-2-1.5Z"/>
  <path class="st0" d="M405.5,553.9v64.5h2v-66c-.6,0-2,1.3-2,1.5Z"/>
  <path class="st0" d="M336,605c0,1.3.2,3,2,2.5.4-.1,1.5-2.2,1.5-2.5v-47.5l-2,3.5c-.7,13.9-2,30.2-1.4,44.1Z"/>
  <path class="st0" d="M400.4,555.9c-.8,6.8-.8,17.7-1,25-.3,9.8-1.1,25.9,0,35.1.2,1.5.8,3.1,2,1.5l1-65c-1.8.4-1.9,2-2,3.5Z"/>
  <path class="st0" d="M389.4,479.9c-1.2-1.8-2.6-1.4-4.4-1.5-9.6-.7-19.6.8-29.1,1-60.1,1.6-120,4.8-180,8-9.5.5-19,.6-28.5,1l1.1,4,240.9-12.5Z"/>
  <path class="st0" d="M384.5,486.1c-.8-3.2-18.4-.7-21.5-.6-63.1,2.2-126,6.3-189,9-6.7.3-14.7-.8-21.1,0-1.5.2-2.6.1-3.4,1.6v38.5c13.8-1.3,27.7-1.1,41.5-2,57.8-3.9,116.3-6.1,174-11,4.7-.4,15.1-.8,18.8-2.2,3.7-1.4.7-9.1.6-12.3-.2-6.9.2-13.9,0-20.9ZM273,513.5c-6.6-5.2-1.9-13.9,4.2-14.8,14-2.2,8.5,24.8-4.2,14.8Z"/>
  <polygon class="st0" points="276.5 504.5 277.6 509.3 282.5 507.9 280.4 503.9 276.5 504.5"/>
  <path class="st0" d="M46.4,440l6.1.4V49.4c-10.4-1.1-6.1,3.9-6,10.5,2.1,76.7-1.1,154.3-1.1,231,0,44.2,2.3,88.8,1.1,133.1,0,3.3-2.7,14.3-.1,16Z"/>
  <rect class="st0" x="23.5" y="31.4" width="3" height="9"/>
  <polygon class="st0" points="21.5 32.4 17.5 32.4 18.5 40.4 21.5 40.5 21.5 32.4"/>
  <rect class="st0" x="20.5" y="53.4" width="5" height="384"/>
  <polygon class="st0" points="33.5 30.4 28.5 30.4 28.5 39.4 33.3 38.3 33.5 30.4"/>
  <polygon class="st0" points="58.4 26.5 54.5 26.4 54.5 37.4 59.3 34.8 58.4 26.5"/>
  <polygon class="st0" points="52 28.4 47.5 27.5 48.5 37.4 52.5 37.5 52 28.4"/>
  <polygon class="st0" points="42.6 29.1 42.5 37.5 46.5 37.4 45.5 27.5 42.6 29.1"/>
  <polygon class="st0" points="40.5 29.4 35.5 29.4 35.5 38.4 40.3 37.3 40.5 29.4"/>
  <polygon class="st0" points="78.5 442.9 79.5 46.5 71.4 48 72 443.5 78.5 442.9"/>
  <path class="st0" d="M69.5,442.5c0-20.2-.1-40.4,0-60.5,0-32.8,0-66.1,0-98.9,0-78.3.1-156.6,0-235h-6.1c-1.9,1,0,2.5,0,2.9v391.5h6Z"/>
  <path class="st0" d="M88.4,355c0-102.8.2-205.7,0-308.6l-7,.6-1,395.8c.1.6,5.5,1.5,6.6,1.6,2.1.1,1.3,0,1.5-1.5,2.5-17-2.6-38.6,1-56,1-10.5-1.1-21.9-1.1-32Z"/>
  <path class="st0" d="M29.4,438c2.8,1.7,5.1-.2,5.1-3.1V51.4l-5.9,1.1-.2,382.4,1,3Z"/>
  <path class="st0" d="M36.4,353.9c0,25.6-1.8,55.1,0,80.1.4,5.2,2.1,8,6.9,3.8,1-26.6,1.2-53.2,1.2-79.9,0-68.7-.8-138.7-1.1-207.9-.1-33.2.2-66.4,0-99.6l-6,.6c-.2,41.3.3,82.6,0,124-.3,59.3-1.1,119.5-1.1,178.9Z"/>
  <path class="st0" d="M54.5,439.9c0,1.5,5.2,2.5,6.6.6,1.4-130.5-.1-261.1-.6-391.6l-6,.5v390.5Z"/>
  <path class="st0" d="M92,444.5l5.4-.5-1-398.5h-5v38.5c0,104.1-.5,209.5-1,313.9,0,15.5-.7,31.3,1.6,46.6Z"/>
  <path class="st0" d="M16.5,561.9c-.3,7,.3,14.1,0,21.1,0,2.6-1,5.1-1.1,7.9-.2,8.6-1,22,0,30.1.2,1.5.8,3.1,2,1.5v-64c-1.8-.2-.9,2.3-1,3.5Z"/>
  <path class="st0" d="M101.5,458.5l-84.5-8.1-4.5,1.6c29.5,4.5,59.5,5.6,89,9.5v-3Z"/>
  <path class="st0" d="M27.5,461.4v91h4v-85.5c0-.8,2-2.5.6-4.6l-4.6-.9Z"/>
  <path class="st0" d="M18.5,460.9c-.2-1.5-.8-3.1-2-1.5v93c3.2.2,2.9-2.2,3.1-4.4,1.8-21.9,0-49.9-1.1-72-.2-4.8.6-10.5,0-15.1Z"/>
  <path class="st0" d="M31,24.4c22.2-2,44.3-7.2,66.5-8v-3c-11.9,1.9-24.6.7-36.5,2-4.5.5-9.2,2.4-13.1,2.9-12.8,1.6-25.5,3.8-38.4,3.1-1.4,3.9,4.2,4.1,7.5,4.1,4,0,9.8-.7,14-1.1Z"/>
  <path class="st0" d="M56,449.5c15.8,1.7,31.6,4.4,47.5,5v-3s-90-8-90-8c3,3.1,10.2,3.5,14.5,4,9,1.1,19,1.1,28,2Z"/>
  <path class="st0" d="M24.1,571.1l-1.6-11.7v64c2.3.1,1.8.3,2-1.5,2.1-16.2-3.2-34.4-.4-50.8Z"/>
  <path class="st0" d="M30.5,559.5c-3-.5-1.6.8-2,2.4-1.1,4.2-.9,12.2-1,17-.4,14.8.4,29.7,0,44.5,7.2.6,3.1-10,3-14.5-.5-16.5.5-33.1,0-49.5Z"/>
  <path class="st0" d="M24.5,459.9l-3.1-.4.3,91.5,2.7,1.5c-.7-19.2,1.1-38.3,1.1-57.5,0-5.4-1.1-11-1.1-17,0-3.5,2.8-16,0-18Z"/>
  <path class="st0" d="M92.5,32.5h4s-1-10-1-10h-4c1.6,3.1.9,6.6,1,10Z"/>
  <polygon class="st0" points="90.5 22.4 87.1 22.6 85.5 24.1 86.5 33.4 90.5 31.8 90.5 22.4"/>
  <path class="st0" d="M66.5,26.4h-3s-.5,7-.5,7l-.5-7c-2.6-3.5-2.1,9.4-2,10l7-1-1-9Z"/>
  <polygon class="st0" points="82.5 23.5 79.4 23.9 78.6 25.1 79.5 34.5 83.5 32.8 82.5 23.5"/>
  <path class="st0" d="M96.5,12.4c.3-2.2,0-3.8-2.5-4l-26.5,4.5c0,1.9,26.5-1.4,29-.5Z"/>
  <polygon class="st0" points="42 15.5 18.1 17.6 10.5 19.4 42.5 17.4 42 15.5"/>
  <path d="M430.5,440.7c-2.6-4.2-1.2-7.1-9-6.3-.4-32.8.5-65.7,0-98.5-.2-11.6-2.6-24.3-1-35.9v-26.6c-.2.4-.4.7-.6,1.1-.6-6.2-.3-12.1.6-17.8v-35.3s0,.1,0,.1c.2-14.5-.3-29,0-43.5.6-41.6-.6-84.5,2-126,.2-3.9-.5-8.4,0-12,.7-5.2,4.6-4.8,7.6-7.4,4.8-4.2,10.2-8.6,6.6-15.6-14.2-1.3-28.4-.9-42.6-1.4C300.6,12,207.3,4.4,113.9,3.5c-20-.2-31.5,1.5-51.1,3.8L2.5,14.4c-2.2,12.9,13.8,16.5,13,29.5v353.5c-.1-.1-.2-.2-.3-.3,0,0,0,.2,0,.2,0,.1,0,.2,0,.4v1.2c0,.1,0,.2,0,.3.2,7.2.7,14.3.6,21.5,0,3.7-.5,7-1.9,10.4-.6,1.5-.8,2.9-1.1,4.2,3.3,5.2-3.3,4.2-5.8,7.1-2.4,2.8-2,8.3-.4,11.3,1.2,2.2,4.7,3.6,4.9,4.3.3,1.3.8,7.1,1,8.8,1.1,14.6-.7,30.4-.1,45.2.2.6.3,1.2.3,1.9,0,1.5,0,2.9-.3,4.3.2,2.5.4,5,.1,7.5.4,7.6,0,19.9,0,23.1-.1,10.9-1,22.1-1.1,32.9-.1,14.8-.2,29.9.5,44.6,9.2,3.9,19.7,3.6,29.5,1.9l1.1-67.9,46.6,6.9,5.4,73.6c1.5,3.8,11.6,5.6,15.5,5.6,3.6,0,7.9-1.8,11.9-1.2l1.5-1.5,1.1-75.4,188-11,.9,52.3c8.9,5.4,18.7,2.9,28.4,2.5l1.5-1.5,2.6-54.4c15.8-2.6,32.4-3.6,48.6-3.9l1.5,69c2.1,4.2,24.8,5.2,29.5,2.5l1-165,1-2,5.9-1.6c0-3.9.9-9.1-.6-12.7-.5-1.1-1.9-1.2-2.3-1.9ZM140,8.4c72.8,1.6,146.1,8,218.9,11.1,10.5.4,21.1-.4,31.5,0v1s-30,0-30,0v1c23.4-1.3,46.8,2.9,70,0-3.8,9.1-12.1,7.3-20.5,7-95.2-3-194-6.3-289-13-8.3-.6-18,3.3-20.5-7,13.2.3,26.4-.3,39.5,0ZM405,50.4c-58.1-1.5-116-5-174-7-40.9-1.4-82-.8-122.9-4.1l-.5-3.8,81.4,4c9,.2,18.1-.4,27.1,0,64.8,2.4,132.4,4.2,197,9,1.8.1,3.2-.3,4.4,1.5-3.3,3.4-8.5.6-12.4.5ZM416.4,435.4l-140.9,5.1-.9-389.4,1.5-1.5c46.3,2.5,92.8,4.3,139.2,7l1.1,378.8ZM254.4,214.9c-4.3,7.4,8.8,18.1,14.6,10.6,3.1-.3.5,1.1.5,1.5v213.5l-146,6c.3-10.2-.3-20.4,0-30.5.4-14,1.5-21.8,0-35.9-.7-6.5,1-13,1.1-19,1-57-.9-114.3-1.1-171-.2-48.5-.4-97.2,1-145.6l144,5,3,162c-6.5-4.6-13-3.5-17,3.4ZM263.4,221l-.9-5.6c7.9-.9,10.5,7.7.9,5.6ZM108.5,148c.1-34.7-.2-69.3,0-104l11-.6-1.1,56.6c1.2,86.5,2,173.6,2.1,259.9,0,20.5-1.7,36.4,0,57.1.3,3.8-.5,27-1.9,28.9-2.8.9-7.1,3-8.9,0-2.3-3.8-1.2-41.2-1.2-48.9.3-82.7-.2-166.8,0-248.9ZM105.5,30.4v-8s17-1,17-1v10s-6.1-.4-6.1-.4l-.9-6.6-1.2,5.8-3.3,1.2-1-2-4.6.9ZM124.6,22.6h4.9c0-.1,0,8.9,0,8.9h-4.9c-1.7-3.1-.9-5.8,0-8.9ZM131.5,31.5v-10c5.2-.9,4.7,6.4,5,10h-5ZM137.9,22.4h6.5c0,0,0,10,0,10l-6-.4c-1.7-1.3-1.2-7.5-.5-9.6ZM145.5,22.5l5.6.9.4,9.1-5.6-1c.4-3.2.4-5.8-.4-9ZM153.5,32.5v-10s3.9.2,3.9.2l1.2,9.9h-5ZM160.5,23.4h4s0,9.5,0,9.5c-5.7,2.3-3.8-5.7-4-9.5ZM166.5,33.5v-10h5v10h-5ZM174.5,23.4h4.9c0,.1,1.1,10,1.1,10-2.8-1.4-3.4.7-6,1v-11ZM182.5,23.4h4s1,11,1,11h-3.4c-2.9-1.1-1.2-8.4-1.6-11ZM188.5,34.5v-11s3,0,3,0l2,11h-5ZM194.5,34.5v-11c5,.2,2.1,7.5,4,11h-4ZM199.5,24.4h5s1,11,1,11h-5c0,0-1.1-11-1.1-11ZM207.5,24.4h3l1,11h-4s0-11,0-11ZM213.5,24.5l4.6.9.4,10.1h-5c0-3.9,2.3-7.3,0-11ZM221.5,36.5v-12c4.1-1,4.5,11.5,4,12h-4ZM227.5,25.4h2.9c0,0,1.1,11,1.1,11h-4s0-11,0-11ZM233.5,36.5v-10h5v10h-5ZM240.5,26.4h4.9c0,.1,1.1,10,1.1,10-1.9,0-5.1.7-5.9-1.6v-8.4ZM248.5,36.5v-10s3.9.1,3.9.1l1.1,9.9h-5ZM255.5,36.5v-10s3.9.2,3.9.2l1.2,9.9h-5ZM262.5,26.4l3.8.2,1,9.2c-6.1,5.7-4.9-5.3-4.8-9.3ZM269.5,27.4h12s0,10,0,10l-4.8-1.1-.2-5.8-1.9,6.6c-7,2.3-4.9-5.1-5.1-9.6ZM287.5,38.5h-3s0-11,0-11c5,.2,2.4,7.5,3,11ZM290.5,38.5v-10h4v10h-4ZM296.5,38.5l.4-9.1,4.6-.9v10s-5,0-5,0ZM303.5,28.4l3.8.2c2,3.3.4,6.3,0,9.8h-3.9c0,0,0-9.9,0-9.9ZM310.5,39.4v-9.4c.1,0,3.9-.5,3.9-.5v8.7c0,0-3.9,1.2-3.9,1.2ZM316.5,29.5h5s-.4,9.1-.4,9.1l-4.6.9c1.5-3.2,1.5-6.8,0-10ZM325.5,40.4l1-11h5s-.9,9.3-.9,9.3l-5.1,1.7ZM333.5,30.4l5.6,1-.6,9-4.9-1v-9ZM341.5,40.5v-10s4,0,4,0l1,10h-5ZM348.5,40.5v-10h5v10h-5ZM354.5,31.5c3.7-1,4.4,9.6,4,10h-3s-1-10-1-10ZM359.5,30.4h4s1,10.5,1,10.5c-4.4,3.7-5.8-9.7-5-10.5ZM366.5,31.4h3s1,9.5,1,9.5c-5.7,2.3-3.8-5.7-4-9.5ZM372.5,31.4h3s1,10.5,1,10.5c-5.9,2.3-3.6-6.6-4-10.5ZM378.5,31.4h3s1,11,1,11h-4s0-11,0-11ZM384.5,31.4h3s1,11.5,1,11.5c-6.2,2.3-3.5-7.5-4-11.5ZM390.5,43.5v-11h4v11h-4ZM407.5,43.5h-11s0-11,0-11c3,1.6,3,6.1,3,9,3.7-1.5,3-5.9,4-9,5.7,1.5,3.8,6.3,4,11ZM409.5,43.5l.2-8.3,2.8-1.7,1,10h-4ZM417,43.4c-2,0-3.4-11.9,2.5-10,.6.6-.7,9-2.5,10ZM102.4,140.9c2.1,101.2.6,202.7,1.1,304l-4,.6V44.4l3.1.4c1,.8.9,1.9,1,3,3.3,28.1-1.7,64.3-1.1,93ZM104.4,37.9l-15.5,2.5c-22.8,2.2-45.8,3.2-68,9l-.4-3.9,79.4-9.2,4.5,1.6ZM91.5,45.4h5l1,398.5-5.4.5c-2.3-15.3-1.7-31-1.6-46.6.6-104.4.9-209.9,1.1-313.9v-38.5ZM88.5,443c-.2,1.5.6,1.6-1.5,1.5-1.1,0-6.5-1-6.6-1.6l1-395.8,7-.6c0,102.8-.1,205.7,0,308.6,0,10.1,2.1,21.5,1.1,32-3.6,17.4,1.4,39-1,56ZM79.5,46.5l-1,396.4-6.4.6-.6-395.5,8-1.6ZM63.4,47.9h6.1c0,78.4,0,156.8,0,235.1,0,32.8,0,66.1,0,98.9,0,20.2.1,40.4,0,60.5h-6V50.9c0-.5-2-1.9,0-3ZM61,440.5c-1.3,1.9-6.6.9-6.6-.6V49.4l6-.5c.4,130.5,1.9,261.1.6,391.6ZM45.4,290.9c0-76.7,3.2-154.3,1.1-231-.2-6.5-4.4-11.6,6-10.5v391l-6.1-.4c-2.6-1.8,0-12.7.1-16,1.2-44.3-1.1-88.9-1.1-133.1ZM37.4,51l6-.6c.1,33.2-.2,66.4,0,99.6.3,69.2,1,139.2,1.1,207.9,0,26.7-.1,53.3-1.2,79.9-4.8,4.2-6.5,1.3-6.9-3.8-1.8-25,0-54.5,0-80.1,0-59.4.8-119.6,1.1-178.9.2-41.3-.2-82.6,0-124ZM34.5,51.4v383.5c0,2.9-2.2,4.7-5.1,3.1l-1-3,.2-382.4,5.9-1.1ZM20.5,53.4h5v384h-5V53.4ZM18.5,40.4l-1.1-7.9h4s0,8,0,8h-2.9ZM23.5,40.5v-9h3v9h-3ZM28.5,30.4h5s-.2,7.9-.2,7.9l-4.8,1.1v-9ZM35.5,29.4h5s-.2,7.9-.2,7.9l-4.8,1.1v-9ZM42.5,37.5l.2-8.3,2.8-1.7,1,10h-4ZM47.5,27.5l4.6.9.4,9.1h-4s-1-10-1-10ZM54.5,26.4h3.9c0,0,1,8.3,1,8.3l-4.9,2.7v-11ZM62.5,26.5l.5,7,.5-7h3s1,9,1,9l-7,1c-.1-.6-.7-13.5,2-10ZM68.5,35.4v-10s7.5,0,7.5,0l.5,9h-5s-1-7-1-7c-.7,2.2,1.8,8.8-2,8ZM78.6,25.1l.8-1.2,3-.4,1.1,9.4-4,1.6-.8-9.4ZM85.5,24.1l1.6-1.5h3.4c0-.1,0,9.2,0,9.2l-4,1.7-.9-9.4ZM91.5,22.5h4s1,10,1,10h-4c-.1-3.4.6-6.9-1-10ZM94,8.4c2.4.2,2.8,1.9,2.5,4-2.5-.9-29,2.4-29,.5l26.5-4.5ZM18.1,17.6l23.9-2.1.5,2-32,2,7.6-1.9ZM9.5,21.5c13,.7,25.6-1.5,38.4-3.1,3.9-.5,8.6-2.4,13.1-2.9,11.9-1.3,24.6-.2,36.5-2v3c-22.2.8-44.3,6-66.5,8-4.2.4-10,1.1-14,1.1-3.3,0-8.9-.2-7.5-4.1ZM103.5,451.5v3c-15.9-.6-31.7-3.3-47.5-5-9-1-19-1-28-2-4.4-.5-11.6-.8-14.5-4l90,8ZM12.5,452l4.5-1.6,84.5,8.1v3c-29.5-3.9-59.6-5-89-9.5ZM17.5,622.4c-1.2,1.6-1.8,0-2-1.5-1-8.1-.2-21.5,0-30.1,0-2.9,1-5.3,1.1-7.9.2-7-.3-14.1,0-21.1,0-1.2-.8-3.7,1-3.5v64ZM19.5,548c-.2,2.3.1,4.7-3.1,4.4v-93c1.2-1.6,1.8,0,2,1.5.6,4.6-.3,10.3,0,15.1,1.1,22.1,2.9,50.1,1.1,72ZM24.5,622c-.2,1.8.3,1.6-2,1.5v-64l1.6,11.7c-2.8,16.4,2.5,34.6.4,50.8ZM25.5,494.9c0,19.2-1.7,38.3-1.1,57.5l-2.7-1.5-.3-91.5,3.1.4c2.7,2,0,14.5,0,18,0,6,1.1,11.6,1.1,17ZM27.5,623.4c.3-14.8-.4-29.7,0-44.5.1-4.8,0-12.8,1-17,.4-1.7-1-2.9,2-2.4.4,16.5-.5,33.1,0,49.5.1,4.5,4.2,15.1-3,14.5ZM31.5,466.9v85.5h-4v-91l4.6.9c1.5,2-.6,3.8-.6,4.6ZM36.5,623.4h-2v-64c.6,0,2,1.3,2,1.5v62.5ZM38.5,550c-.5,3.7-1.7,4.7-5.1,3.4,0-.7,1-1.2,1-1.5v-91.5l3.8,1.2-.9,23.3c-.5,20.2,3.6,45.3,1.1,65.1ZM45.5,555.4l-4-1.7c-.3-14.6.3-29.3,0-43.9-.2-14.5-2.8-30.4-.9-44.9.5-3.7,1.1-4,4.9-3.6v94ZM48.6,554.8c-.4-15.9,0-31.9-.1-47.9,0-2.1-1-4.1-1-6,0-12.9,2-25.7,0-38.5h6s0,93.4,0,93.4c-.2,1.3-4.7.7-4.9-1.1ZM61.4,554.9c0,1.2-.9,2.3-.9,3.6-.8.6-5-1.9-5-2.5v-93.5l4.1.4.9,2.1c.1,17.3-.2,34.7,0,52,0,12.6,1.3,25.4,1,37.9ZM63.5,558.5l-1-95h5s1,95,1,95h-5ZM75.5,559.5h-5v-96s3.1.4,3.1.4c1.9,1.3.7,13.9.9,17.1.1,2.4,1,4.6,1.1,6.9.8,23.8-.7,47.8,0,71.5ZM81.5,560.4h-4v-96l4.1.4.9,2.1-1,93.5ZM88.5,561.5h-4s1-96,1-96l3.8,1.2c0,31.6,1,63.3-.8,94.8ZM95.5,596.4c-.9,0-2-5.2-2-5.5v-23.5l2,20.5v8.5ZM95,562.5c-6.5,0-2.6-9.5-2.5-13.5.9-27-.7-54.1,0-81.1l2-1.5c2,11.3.7,23,1,34.5,0,2.6,1,5.1,1.1,7.9,0,4.9,1.1,53.2-1.6,53.6ZM100.5,638.4c-1.8-.4-1.9-2-2-3.5-1.8-15.6.6-35.8,0-52.1-.1-4.5-1.9-9.6-1-14.5,1.7-.9,3,1.7,3,2.5v67.5ZM104.5,639.4h-1v-63.5c0-1.8-1.2-4.8,0-7.5h1s0,71,0,71ZM104.5,563.4l-4.8-1.2c-2.3-3-.2-6.1-.2-9.3.3-13.3.1-26.8,0-40.1-.1-13.6-2.6-28.3-1.1-42,.2-1.5,0-2.5,1.5-3.4,2.7,2.2,1.1,6.2,1.5,9.5l2,12.5v-21l2,1.5-1,93.5ZM119.5,638l-1.6,2.4h-7.4c-.2-14.3.3-28.9,0-43.4-.4-23.3-1.2-46.6-1-69.9.2-18.7.5-37.3,1-56l1.6-2.4h7.4c0-.1,0,169.4,0,169.4ZM322.5,606.4h-4s0-49,0-49h3v45.5c0,.5,1.6,2.1,1,3.5ZM333.5,560.9v43c-.4,1.9-2.8,4.2-5,3.5.2-3.8-.2-7.7,0-11.5.5-10.8,1.2-25.5,3.1-35.9.3-1.7,1.1-2.8,3-2.5.6,1.4-1,3-1,3.5ZM339.5,604.9c0,.3-1.1,2.4-1.5,2.5-1.8.5-1.9-1.2-2-2.5-.6-13.9.7-30.1,1.4-44.1l2-3.5v47.5ZM401.5,617.4c-1.2,1.6-1.8,0-2-1.5-1.2-9.2-.3-25.3,0-35.1.2-7.3.2-18.2,1-25,.2-1.5.2-3.1,2-3.5l-1,65ZM407.5,618.4h-2v-64.5c0-.2,1.4-1.6,2-1.5v66ZM418.8,620.3c-3.6,1.1-4.9.1-5.3-3.3-2.1-17.6,0-44.4,0-63.1,0-7,.1-13.8,0-20.9-.1-23.5.8-47.2-2.1-70.5l-2,10.5-1.4,72.6-1.2.8-283.4,18.1,1-96,297-12c.1,10.2-.1,20.4,0,30.5.4,40.3-.3,80.5-1,120.9,0,3.3,3.5,10.8-1.7,12.4ZM427.5,451.4c-6.8-1.1-14.6.6-21.5,1-47.8,2.8-96.1,4.1-144,6-34.3,1.4-68.8,3.9-103,5-14.7.5-33.7,1-48.1,0-1.9-.1-3.6-.6-5.4-1.1l1.7-2.8c20.3-.3,40.6-.4,60.9-1.1,69.3-2.6,138.7-6.5,207.9-9.1l51.5-2v4ZM423,443.4c-61.1,4.9-125.5,5.5-187,8-42.8,1.8-85.6,4.5-128.5,4l.6-3.1c2.6-1.9,26.5-.7,32-.9,72.4-2.8,144.5-6.6,217-9,21-.7,45.2-3.4,66-2.1,1.9.1,3.6.5,5.4,1.1-.2,1.6-4.3,1.9-5.5,2Z"/>
  <path d="M291.5,228.4c.5,50.5,1.5,100.9,1,151.5,0,9.1-1.7,18.4-1.1,28,.2,3.4.6,12.3,3.7,13.3l100.1-5.5,2.1-1.9-1.9-335.2c-3.2-1.2-5.9-2.7-9.4-3.1-23.8-2.6-51.7-.8-76-2-5.5-.3-11.8-1.7-17.5-2l-.9,136.4c-15.9,2-16.1,20,0,20.6ZM389.5,172.9c0,14-1.9,28-1.1,42,1.4,1.6,1-1.1,1-2,.9-31.5,1.4-63,1-94.5,1.8.4,1.9,2,2,3.5.9,8.3.9,22.2,1,31,.2,11.4-1.1,22.8-1.1,34-.2,72.1,3.1,144.3-2,216.1-.3,4.8-3.6,2.9-4.1-1-1.5-14.1,2.4-33.7,3.1-48,1.2-27.1-.5-53.9-1.1-81-1-50-1.4-100.1-2-150-.2-12.5-.4-25.2,1-37.5h3c-.3,19.9-.7,39.7-1,59.5-.1,9.3,0,18.6,0,27.9ZM325.9,78.5c16,0,32.1,0,48,1,2.2.1,10.6.8,11.8,1.2,1.3.4,1.9,1.5,1.7,2.8l-77.5-2c-3.4-.9-9.3-.2-9.5-5l25.5,2ZM382.3,402.7l-3.3,2.7-76.5,4c-.4-51.5.5-103,0-154.5-.1-16.5-1.3-32.4-1-49,.5-40.4,1.6-80.9,1-121.5l78.4,3.1,1.2.8c1.1,39.4,0,79.1.4,118.6.3,31.1,2.1,62.8,2.1,93.9,0,34-2.6,67.8-2.2,101.8ZM308.1,413.6c10.1-1,20.7-1.4,30.9-2.1,16.3-1.1,32.8-.8,49.1-3l2.4,2.9-91,6c-2.8-2.5,7.7-3.8,8.6-3.9ZM297,77.4l1.5,134-3.1-2.5,1.6-131.6ZM296.5,241.9c-.1-4.9-3.4-12.9.9-16.5l1,187c-1.9-.2-1.9-4-2-5.5-3.4-53.2,1.5-111.1,0-165.1ZM289.1,215.5c4.2-1.4,8.3,4.7,2.4,6.5-5.4,1.7-5-5.7-2.4-6.5Z"/>
  <path d="M402.1,118.2l3.3-.8v-26c-9.5-2.7-6.1.8-6,6.5.1,4.1-1.7,19.6,2.6,20.3Z"/>
  <path d="M401.5,398.5h5v-27l-6-1c-.7,9.4,1,18.6,1,28Z"/>
  <path d="M139.5,67.4c.3,3.6-.8,6.9-1,10.5-2.7,44.9,1.1,94,1,139,0,62.8-2.6,126.1,0,189,.2,3.7-.9,21.2,1.1,22.4,18.8.9,37.6-1.7,56.4-2.9,9.6-.6,19.4-.3,29-1,7.2-.5,17.2-.8,24-2,1.1-.2,2-.4,2.4-1.6l-.5-350.2-112.4-3.1ZM145.5,419.4l-2-1.5c-1.6-67.6-1.3-135.4-1-203.1,0-2.9,1.1-5.3,1.1-7.9.2-44.5-1.6-88.2,0-132.5.6,0,2,1.3,2,1.5v343.5ZM246,418.4c-17.2,2.2-34.7,1.9-52,3-15.8,1-31.6,3.8-47.5,3l.4-3.1,1.2-.8c8.6-1.2,17.3-.6,25.8-1.2,24.5-1.6,48.9-3.5,73.5-3,1.7,1.3-.1,1.8-1.5,2ZM240.5,205c0,66.1-2.3,133.8,1,199.9.1,2.2-.2,4.4,0,6.6l-92,4V79.4l91,3c0,40.8,0,81.7,0,122.5ZM248.5,414.4c-2.9.5-1.7-.6-2.1-2.3-.6-2.1-.8-4-.9-6.1-3.1-53.5.1-112.9,0-167.1,0-50.6-1.9-102.2,0-153,0-2.5,1.2-4.9,1-7.5-12.1-.3-24.4.4-36.5,0-15.4-.5-31.4-1.2-46.9-2.1-2.3-.1-11.6-.8-12.9-1.1-1.7-.5-1.9-1.8-1.7-3.3l94.5,2.5c2.3,0,5.5,4.9,5.5,6.5v333.5Z"/>
  <path d="M395,473.4c-5.1-.9-17.2-.2-23,0-37.2,1-74.7,3.4-111.9,5.1-6.3.3-12.7-.3-19.1,0l-100.8,7c-.4.1-1.6,3.3-1.6,3.6v56c0,.4,1.1,1.6,1.1,2.4l257.9-16.9v-55.5c-.6-1-1.4-1.3-2.5-1.5ZM176,487.4c60-3.2,119.9-6.4,180-8,9.4-.3,19.5-1.7,29.1-1,1.8.1,3.2-.3,4.4,1.5l-240.9,12.5-1.1-4c9.5-.4,19-.5,28.5-1ZM384.4,507c0,3.2,3,10.9-.6,12.3-3.7,1.4-14.1,1.8-18.8,2.2-57.7,4.9-116.2,7.1-174,11-13.8.9-27.7.8-41.5,2v-38.5c.9-1.4,2-1.4,3.4-1.6,6.3-.7,14.4.4,21.1,0,63-2.7,125.9-6.8,189-9,3.1-.1,20.7-2.6,21.5.6.1,6.9-.3,13.9,0,20.9ZM145.5,537.9c0,.3-1.4,1.5-2,1.5-2.8-2,0-40.7,0-47,.6,0,2,1.3,2,1.5v44ZM391,526.4c-31.5,4.6-65.1,4-97,6-16.3,1-32.7,3-49,4-32.8,2-65.7,3.7-98.5,6l.6-3.1c7.8-2.8,16-1.3,24-1.9,31.7-2.1,63.4-3.8,95-7l126.5-6c.2,2.5.2,1.7-1.5,2ZM393.5,518.9l-2.5,1.5c-1.8-1.2-1.4-2.7-1.6-4.4-.9-11.8,1.2-23.8,1.1-35.5,2.1-.9,3,2.9,3,3.5v35Z"/>
  <path d="M233,17.4l3.5-1c-33.3-1.7-66.6-4.9-100-4l3.5,1c31.1,0,62.1,2.8,93,4Z"/>
  <path d="M298,18.4c1.2,0,3.7.8,3.5-1l-21.5-1.1-11.6.5c9.8.7,19.6,1.9,29.5,1.5Z"/>
  <path d="M277.2,498.6c-6.1,1-10.9,9.7-4.2,14.8,12.8,9.9,18.2-17,4.2-14.8ZM277.6,509.3l-1.1-4.9,4-.6,2,4-4.9,1.4Z"/>
</svg>