<?xml version="1.0" encoding="UTF-8"?>
<svg id="_レイヤー_1" data-name="レイヤー_1" xmlns="http://www.w3.org/2000/svg" version="1.1" viewBox="0 0 700 600">
  <!-- Generator: Adobe Illustrator 29.0.1, SVG Export Plug-In . SVG Version: 2.1.0 Build 192)  -->
  <defs>
    <style>
      .st0 {
        fill: #827c75;
      }
    </style>
  </defs>
  <g>
    <path class="st0" d="M282.2,550.7c-41.4-32.2-107-133.2-126.7-163.3-32,46.1-55,87-78.7,127.1-16.8,28.3-16.1,29.9-27.8,28.3-11.6-.6-5-17.5-4.5-24.6,5.7-27.8,12.6-55.1,21.1-81.9,14.8-46.6,34.5-91.3,55.1-135.3,6.7-14.7,14.6-29.2,20.7-43.8-7.5,5.4-14.4,16.8-21.1,24.6-28.1,36.9-27.6,49.3-35.1,48.9-10.4-.3-2.9-8.5-1.1-13.5,12.3-23.6,28.2-44.7,45.8-64.8,4.9-5.4,13.2-14.8,18.1-15.2,15.5-1.3,14.4,5.2,10.6,14.9-4.7,12.3-10.5,23.7-15.9,35.5-33.5,72-65.3,146-80.4,222.7,24.6-40,48.9-81.1,75.7-120,26.8-38.9,138.6-181.2,202.7-244.5,8.9-8.8,13.6-4.1,14.5.7-47.4,44-86.3,95.6-127.2,145.4-17.9,23.5-27.2,34.4-32.6,41.5-10.9,13.9-21,27.5-30.5,40.7,25.2,46.4,105.5,155.9,128.2,172.7,4.7,3.4,12.2,6.5,17,5.6,12-2.2,16.1-14,15-7.7-.5,3.5-8.3,11-16.8,12.5-12.4,2.3-20.1-1.9-26.1-6.4Z"/>
    <path class="st0" d="M263.2,423c-3.9-1.5-5.1-5.6-5.7-9.1-3.7-20,22.8-56.8,47.9-61,6.1-1.1,13.1-.8,17.8,1.4-1.3-3.6.5-4.8,2.9-5.2,2.9-.3,5.7.3,8.3,1.4,1.7.8,2.7,2.2,3.2,3.9,2.5,9.7,9.3,23.7,15.2,30.2,4.3,5.1,10,6.7,17,5.4,17.4-3.2,38-22,50.3-35.8,1.5-1.6,3.1-3.7,4.8-5.6.4-.3.6-.6,1-.4.7.3.2.9.2,1.1-.6,2.8-1.9,5.3-3.3,7.6-3.1,5.3-7.4,10.1-11.7,14.5-11.1,10.4-25.8,20.9-38.4,23.2-9.8,1.8-18.9-.1-28.7-5.7-7.3-4.3-13.7-15.9-18.3-25.2-12.5,22.7-21.1,35.4-32.3,49.1-2.8,3.2-6.1,6.1-9.5,8.5-2.6,1.8-5.1,3-7.7,3.4-4.1.8-8.5,0-12.9-1.9ZM303.9,386.5c6.2-7.9,11.5-17.2,17-26.1-2.1-1.9-4.6-3.2-8.5-2.3-17.9,4-42.8,43.6-40.4,56.4.6,3.3,3.1,2.3,4.5,1.4,11.9-7.6,20.5-20.6,27.4-29.5Z"/>
    <path class="st0" d="M392.8,594c-11.6-1-15.9-8.1-17.5-17-3.4-18.7,10-45.7,20-62.6,12.1-20,26.2-38.5,41.6-56,14.1-16.1,29.1-31.2,44-46.5,4.2-21.4,9.2-42.8,7.2-67-19.1,23.1-43.9,52.3-61,55.5-2.4.4-4.8.7-7.4.2-5.6-1-12.4-5.1-13.5-11.2-.9-4.8,3.2-15.6,6.8-22.8,11.2-20.7,34.2-42.5,55.9-44.2,13.1-1.1,27.5,5.1,27.6,14.5.2,1.3-.4,2.6-.8,4,0,.2,3.8,4.9,4.7,9.5,2.7,14.6.6,28.9-1.5,43,4.6-4.2,9.6-9.2,14.1-13.6,19-19,38.5-37.4,58.7-54.8.4,0,.6-.6.8-.6.9-.2,1.4-2.1,2.2-1.3q.3.2.3.4c.1.7-1.1,1.3-1.7,1.9-12.6,12.4-25.1,24.6-37.4,37.2-13.3,13.2-25.8,27-38.9,40.4-7.4,39.1-20.8,76.2-37.8,112.1-7.7,15.6-34.8,73.6-59.8,78.2l-2.6.5c-1.3.2-2.6.5-4,.3ZM446.8,509.5c12.4-27.7,23.4-56,31-85.7-8.7,10.4-18.1,20.4-26.5,30.5-16.1,18.9-32.1,38-45.1,59.3-10.8,18.2-24.2,44.7-20.6,64.2.9,4.8,3.1,12.2,8.4,11.3,23.3-5.2,45.6-63.9,52.8-79.6ZM431.5,390.9c10.5-7.6,20.4-16.1,29.4-25.9l18-19.3c1.9-1.9,3.8-4.1,6-5.2,1.8-1,2.8-1.6,1.6-3.4l-.4-2.4c-1.7-5.7-6.3-8.7-11.5-7.8-11.1,2-29.1,19.1-36.1,28.4-6.7,8.9-12.2,18.2-15.1,28.9-.8,3.1-1.4,6.1-1.2,9.2v.7c.4,1.3,1.1,1.6,2.5.9,2.4-1.3,4.7-2.7,6.9-4.2Z"/>
    <path class="st0" d="M595.7,347.9c-.6-3,0-6.5-.5-10-2.3,3.3-22.5,32.7-31.4,34.3-2.8.5-5.8.2-9-1-3.4-1.2-5.1-4.5-5.8-8.4-2.2-12,10.1-41.6,15.1-51.3,1.3-2.7,3.7-4.3,6.3-4.8,2.6-.5,5.4.1,7.5,1.8.8.8,1.2,1.6.9,2.5-6.9,16.3-9.4,21.3-14.6,40.2-1.1,3.8-1.5,6.3-2.1,10.7-.4,3,1.5,3.3,3.7,1.6,12.6-11.1,24.1-31.6,32-44.5.8-1.5,1.7-3,2.3-4.7,1.1-2.5,2.7-3.4,5.3-3.2,6.2.9,7.7,1.7,8.1,3.9.2.9.2,2.2,0,3.6-1.5,12.4-6.2,23.6-3.9,36,.6,3.3,1.4,5.4,3.8,4.9,17.4-3.2,37.6-21.5,49.9-35.3,1.5-1.6,3.1-3.7,4.8-5.6.4-.3.6-.6,1-.4.7.3.2.9.2,1.1-.6,2.8-1.9,5.3-3.3,7.6-3.1,5.3-7.4,10.1-11.7,14.5-11.1,10.4-25.8,20.9-38.4,23.2-3,.6-17.1-.2-20.2-16.7Z"/>
  </g>
  <g>
    <path class="st0" d="M127.1,12.6c0,.3,0,.4-.2.4-1.9,0-3.3.6-4.2,1.7-.9,1.1-1.4,2.9-1.4,5.4v36.7c0,.1-.1.2-.4.3-.2,0-.4,0-.5,0l-32.6-39.1-.2-.3v30.5c0,2.4.4,4.2,1.3,5.3.9,1.1,2.3,1.7,4.1,1.7s.2.1.2.4,0,.4-.2.4c-1.1,0-2,0-2.7,0h-3.6c0,0-3.7,0-3.7,0-.7,0-1.7,0-3,0s-.1-.1-.1-.4,0-.4.1-.4c2,0,3.5-.6,4.4-1.7s1.4-2.9,1.4-5.3V15.8c-1.9-1.9-3.9-2.8-5.8-2.8s-.2-.1-.2-.4,0-.4.2-.4h2.6c.6.1,1.4.1,2.4.1h3.3c.4-.1.9-.1,1.5-.1s.6,0,.8.2c.2.2.4.5.8,1.1.6.8,1.1,1.6,1.7,2.3l26.5,32.1v-27.8c0-2.4-.4-4.2-1.3-5.4-.8-1.1-2.2-1.7-4.1-1.7s-.1-.1-.1-.4,0-.4.1-.4h2.7c1.5.2,2.7.2,3.6.2s2.1,0,3.6-.1h2.9c.1,0,.2,0,.2.4Z"/>
    <path class="st0" d="M131.7,55.5c0-.3,0-.4.2-.4,1.7,0,2.9-.3,3.4-.9s.8-1.9.8-3.9v-13c0-1.6-.2-2.8-.5-3.6-.3-.7-.9-1.1-1.8-1.1s-1.8.3-3.1,1h0c-.2,0-.3-.1-.4-.3,0-.2,0-.4.1-.5l9.3-4.3h.3c.1,0,.3,0,.5.1.2.1.2.3.2.4,0,.3,0,1.3,0,2.8,0,1.5,0,3.4,0,5.5v13.1c0,1.4.1,2.4.3,3,.2.7.6,1.1,1.2,1.4.6.3,1.5.4,2.7.4s.2.1.2.4,0,.4-.2.4c-1.2,0-2.1,0-2.7,0h-3.8c0,0-3.9,0-3.9,0-.7,0-1.5,0-2.6,0s-.2-.1-.2-.4ZM135.6,19.4c-.6-.6-.9-1.4-.9-2.4s.3-1.7.9-2.2c.6-.6,1.4-.8,2.4-.8s1.8.3,2.3.8c.6.6.8,1.3.8,2.2s-.3,1.8-.8,2.4c-.6.6-1.3.8-2.3.8s-1.8-.3-2.4-.8Z"/>
    <path class="st0" d="M155.9,54.8c-2.1-1.3-3.6-3-4.6-5.1-1-2.1-1.5-4.3-1.5-6.7s.8-5.6,2.3-7.8c1.5-2.2,3.5-3.9,5.9-5.1,2.4-1.2,4.8-1.8,7.4-1.8s4,.4,5.7,1.3c1.7.8,2.6,1.9,2.6,3.2s-.2,1.3-.7,1.8c-.5.5-1.1.7-1.9.7-1.5,0-2.6-.8-3.4-2.5-.5-1-1.1-1.8-1.8-2.2-.7-.5-1.6-.7-2.9-.7-2.5,0-4.5,1-5.9,3-1.4,2-2.1,4.7-2.1,8.1s1,7.1,2.9,9.6c1.9,2.5,4.8,3.7,8.8,3.7s5-.7,7-2.2h.1c.1,0,.3,0,.4.2.1.1.1.3,0,.3-1.6,1.5-3.3,2.6-4.9,3.3-1.7.7-3.5,1-5.6,1-3,0-5.6-.7-7.6-2Z"/>
    <path class="st0" d="M201.7,51.9c.1,0,.3,0,.4.2.1.2.1.3,0,.5-3.1,2.8-6.6,4.2-10.4,4.2s-5.1-.6-7.1-1.9c-2-1.2-3.5-2.9-4.5-5-1-2.1-1.5-4.3-1.5-6.7s.7-5.3,2-7.6c1.3-2.3,3.1-4.1,5.4-5.4,2.3-1.3,4.8-2,7.6-2s4.8.7,6.2,2.1c1.4,1.4,2.1,3.3,2.1,5.9s-.3,1.9-.8,1.9h-17.3c0,1.1-.1,1.9-.1,2.5,0,4.1,1,7.3,2.9,9.8,1.9,2.5,4.6,3.7,8.1,3.7s2.6-.2,3.5-.5c1-.3,2.1-.9,3.4-1.7h0ZM186.5,31.7c-1.3,1.3-2.1,3.2-2.5,5.6l12.7-.3c0-2.4-.5-4.2-1.4-5.4-1-1.2-2.3-1.9-4-1.9s-3.6.7-4.8,2Z"/>
    <path class="st0" d="M249.5,6.2c1.5.7,2.3,1.6,2.3,2.7s-.3,1.3-.8,1.8c-.5.4-1.2.7-1.9.7s-1.2-.2-1.6-.5-.9-.8-1.4-1.6c-.7-1-1.4-1.7-2.1-2.2-.8-.5-1.7-.7-2.9-.7-2.6,0-4.7,1.6-6.2,4.7-1.5,3.1-2.3,7.8-2.3,14.2v4.5c2.9-.1,5.8-.4,8.8-.7.1,0,.3.2.4.5,0,.3.1.7.1,1.1s0,.8-.2,1.2c-.1.4-.3.6-.5.5-2.4-.6-5.3-1-8.5-1.1v19c0,1.4.2,2.5.5,3.1.3.7.9,1.1,1.9,1.3.9.2,2.4.4,4.5.4s.2.1.2.4,0,.4-.2.4h-4.6c-1-.1-2.5-.1-4.5-.1h-4c-.7.1-1.7.1-2.9.1s-.2-.1-.2-.4,0-.4.2-.4c1.4,0,2.4-.1,3-.4.7-.2,1.1-.7,1.3-1.4.2-.7.4-1.7.4-3.1v-15.8c0-1.2-.1-2-.4-2.5s-.7-.8-1.3-1c-.7-.2-1.8-.2-3.3-.2s-.2-.2-.2-.5,0-.5.2-.5c1.9,0,3.1-.2,3.8-.7.7-.4,1-1.3,1.1-2.5.2-7.6,1.6-13.1,4.2-16.5,2.5-3.4,6.3-5.1,11.4-5.1s4.4.4,5.9,1.1Z"/>
    <path class="st0" d="M276.9,51.8c.2,0,.3.1.4.3,0,.2,0,.4-.1.5l-8.5,4h-.3c-.5,0-.9-.5-1.3-1.6s-.6-2.6-.6-4.3c-3.5,3.9-7.1,5.9-10.9,5.9s-4.2-.7-5.6-2.2c-1.4-1.5-2-3.6-2-6.4v-10.7c0-1.8-.2-3.1-.5-3.8-.3-.8-.8-1.2-1.6-1.2s-1.3.2-2.3.6h-.1c-.1,0-.2-.1-.3-.3,0-.2,0-.4.1-.4l8.1-3.7h.3c.1,0,.3,0,.5.1.2.1.3.3.3.4v16.5c0,5.4,2,8,5.9,8s2.8-.3,4.3-1,2.8-1.7,4-2.9v-12.2c0-1.8-.2-3.1-.5-3.8-.3-.8-.9-1.2-1.6-1.2s-1.3.2-2.3.6h-.1c-.1,0-.2-.1-.3-.3,0-.2,0-.4.1-.4l8-3.7h.3c.1,0,.3,0,.5.1.2.1.2.3.2.4v19.4c0,1.6.2,2.7.6,3.4.4.7,1,1,1.8,1s1.9-.3,3.6-.9h.1Z"/>
    <path class="st0" d="M299.8,29.2c1,.6,1.4,1.3,1.4,2.2s-.2,1.2-.7,1.6c-.4.4-1,.7-1.8.7s-.9,0-1.2-.3c-.3-.2-.7-.5-1.1-.8-.5-.4-.9-.7-1.2-.8-.3-.2-.8-.3-1.3-.3s-1.2.2-1.9.7-1.6,1.5-3,3.1v15.1c0,1.4.2,2.4.5,3,.3.7,1,1.1,1.9,1.4.9.3,2.4.4,4.3.4s.2.1.2.4,0,.4-.2.4c-1.5,0-2.8,0-3.7,0h-5.2c0,0-3.8,0-3.8,0-.7,0-1.5,0-2.7,0s-.2-.1-.2-.4,0-.4.2-.4c1.2,0,2.1-.1,2.7-.4.6-.3,1-.7,1.2-1.4.2-.7.3-1.7.3-3v-13.7c0-1.5-.2-2.7-.6-3.4-.4-.7-1-1-1.8-1s-1.9.3-3.7,1h0c-.2,0-.3-.1-.4-.3,0-.2,0-.4.1-.5l8.4-4.1h.4c.5,0,.9.5,1.4,1.5.4,1,.7,2.4.7,4.1,1.9-2.2,3.4-3.7,4.5-4.5,1.1-.8,2.2-1.2,3.2-1.2s2,.3,3,.9Z"/>
    <path class="st0" d="M338,55.5c0,.3,0,.4-.2.4-1.2,0-2.1,0-2.7,0h-3.8c0,0-3.8,0-3.8,0-.7,0-1.5,0-2.7,0s-.2-.1-.2-.4,0-.4.2-.4c1.2,0,2.1-.1,2.7-.4.6-.3,1-.7,1.2-1.4.2-.7.3-1.7.3-3v-11.1c0-2.7-.5-4.7-1.5-6-1-1.3-2.6-1.9-4.8-1.9s-2.7.3-4.2,1-2.7,1.7-3.9,2.9v15.1c0,1.4.1,2.4.3,3,.2.7.6,1.1,1.2,1.4.6.3,1.5.4,2.7.4s.2.1.2.4,0,.4-.2.4c-1.2,0-2.1,0-2.7,0h-3.8c0,0-3.8,0-3.8,0-.7,0-1.5,0-2.7,0s-.2-.1-.2-.4,0-.4.2-.4c1.2,0,2.1-.1,2.7-.4.6-.3,1-.7,1.2-1.4.2-.7.3-1.7.3-3v-13.7c0-1.5-.2-2.7-.6-3.4-.4-.7-1-1-1.8-1s-1.9.3-3.7,1h0c-.2,0-.3-.1-.4-.3,0-.2,0-.4.1-.5l8.4-4.1h.4c.5,0,.9.5,1.4,1.5.4,1,.7,2.4.7,4.2,3.4-4,7-6,10.7-6s4.6.7,6,2.2c1.4,1.5,2.1,3.6,2.1,6.4v13.7c0,1.4.1,2.4.3,3,.2.7.6,1.1,1.2,1.4.6.3,1.5.4,2.7.4s.2.1.2.4Z"/>
    <path class="st0" d="M342.7,55.5c0-.3,0-.4.2-.4,1.7,0,2.9-.3,3.4-.9s.8-1.9.8-3.9v-13c0-1.6-.2-2.8-.5-3.6s-.9-1.1-1.8-1.1-1.8.3-3.1,1h0c-.2,0-.3-.1-.4-.3,0-.2,0-.4.1-.5l9.3-4.3h.3c.1,0,.3,0,.5.1.2.1.2.3.2.4,0,.3,0,1.3,0,2.8,0,1.5,0,3.4,0,5.5v13.1c0,1.4.1,2.4.3,3,.2.7.6,1.1,1.2,1.4.6.3,1.5.4,2.7.4s.2.1.2.4,0,.4-.2.4c-1.2,0-2.1,0-2.7,0h-3.8c0,0-3.9,0-3.9,0-.7,0-1.5,0-2.6,0s-.2-.1-.2-.4ZM346.5,19.4c-.6-.6-.9-1.4-.9-2.4s.3-1.7.9-2.2c.6-.6,1.4-.8,2.4-.8s1.8.3,2.3.8.8,1.3.8,2.2-.3,1.8-.8,2.4-1.3.8-2.3.8-1.8-.3-2.4-.8Z"/>
    <path class="st0" d="M380.2,52.1c.1,0,.3.1.3.3,0,.2,0,.4,0,.5-1.7,1.4-3.3,2.4-4.7,3-1.4.6-2.9.9-4.5.9s-3.6-.5-4.9-1.4-1.9-2.4-1.9-4.5v-16.3c0-1.1,0-1.9-.3-2.5-.2-.5-.5-.9-1-1.1s-1.3-.3-2.3-.3-.2-.2-.2-.5,0-.5.2-.5c2,0,3.6-.5,4.8-1.5,1.2-.9,2-2.2,2.3-3.9,0-.1.2-.2.6-.2s.5,0,.5.2v5.3c2.2,0,5.4-.3,9.6-.7.1,0,.3.2.3.5,0,.3.1.7.1,1.1s0,.8-.2,1.2c-.1.4-.3.6-.5.5-2.6-.6-5.7-1-9.4-1.1v17.2c0,3.7,1.8,5.6,5.5,5.6s3.8-.7,5.6-2h.1Z"/>
    <path class="st0" d="M416.2,51.8c.2,0,.3.1.4.3,0,.2,0,.4-.1.5l-8.5,4h-.3c-.5,0-.9-.5-1.3-1.6s-.6-2.6-.6-4.3c-3.5,3.9-7.1,5.9-10.9,5.9s-4.2-.7-5.6-2.2c-1.4-1.5-2-3.6-2-6.4v-10.7c0-1.8-.2-3.1-.5-3.8-.3-.8-.8-1.2-1.6-1.2s-1.3.2-2.3.6h-.1c-.1,0-.2-.1-.3-.3,0-.2,0-.4.1-.4l8.1-3.7h.3c.1,0,.3,0,.5.1.2.1.3.3.3.4v16.5c0,5.4,2,8,5.9,8s2.8-.3,4.3-1,2.8-1.7,4-2.9v-12.2c0-1.8-.2-3.1-.5-3.8-.3-.8-.9-1.2-1.6-1.2s-1.3.2-2.3.6h-.1c-.1,0-.2-.1-.3-.3,0-.2,0-.4.1-.4l8-3.7h.3c.1,0,.3,0,.5.1.2.1.2.3.2.4v19.4c0,1.6.2,2.7.6,3.4.4.7,1,1,1.8,1s1.9-.3,3.6-.9h.1Z"/>
    <path class="st0" d="M439.1,29.2c1,.6,1.4,1.3,1.4,2.2s-.2,1.2-.7,1.6c-.4.4-1,.7-1.8.7s-.9,0-1.2-.3c-.3-.2-.7-.5-1.1-.8-.5-.4-.9-.7-1.2-.8-.3-.2-.8-.3-1.3-.3s-1.2.2-1.9.7-1.6,1.5-3,3.1v15.1c0,1.4.2,2.4.5,3,.3.7,1,1.1,1.9,1.4.9.3,2.4.4,4.3.4s.2.1.2.4,0,.4-.2.4c-1.5,0-2.8,0-3.7,0h-5.2c0,0-3.8,0-3.8,0-.7,0-1.5,0-2.7,0s-.2-.1-.2-.4,0-.4.2-.4c1.2,0,2.1-.1,2.7-.4.6-.3,1-.7,1.2-1.4.2-.7.3-1.7.3-3v-13.7c0-1.5-.2-2.7-.6-3.4-.4-.7-1-1-1.8-1s-1.9.3-3.7,1h0c-.2,0-.3-.1-.4-.3,0-.2,0-.4.1-.5l8.4-4.1h.4c.5,0,.9.5,1.4,1.5.4,1,.7,2.4.7,4.1,1.9-2.2,3.4-3.7,4.5-4.5,1.1-.8,2.2-1.2,3.2-1.2s2,.3,3,.9Z"/>
    <path class="st0" d="M467.7,51.9c.1,0,.3,0,.4.2.1.2.1.3,0,.5-3.1,2.8-6.6,4.2-10.4,4.2s-5.1-.6-7.1-1.9c-2-1.2-3.5-2.9-4.5-5-1-2.1-1.5-4.3-1.5-6.7s.7-5.3,2-7.6c1.3-2.3,3.1-4.1,5.4-5.4,2.3-1.3,4.8-2,7.6-2s4.8.7,6.2,2.1c1.4,1.4,2.1,3.3,2.1,5.9s-.3,1.9-.8,1.9h-17.3c0,1.1-.1,1.9-.1,2.5,0,4.1,1,7.3,2.9,9.8,1.9,2.5,4.6,3.7,8.1,3.7s2.6-.2,3.5-.5c1-.3,2.1-.9,3.4-1.7h0ZM452.5,31.7c-1.3,1.3-2.1,3.2-2.5,5.6l12.7-.3c0-2.4-.5-4.2-1.4-5.4-1-1.2-2.3-1.9-4-1.9s-3.6.7-4.8,2Z"/>
    <path class="st0" d="M496.1,36.8c1,1,2.6,2,4.6,3.1,1.6.8,2.9,1.6,3.8,2.2.9.6,1.7,1.4,2.4,2.4.7,1,1,2.2,1,3.6,0,2.4-.9,4.4-2.7,6.1-1.8,1.7-4.2,2.5-7.4,2.5s-2.4-.2-3.5-.5c-1.1-.3-2.2-.9-3.3-1.6-.3-.2-.4-.5-.4-.8v-5.7c-.1-.1,0-.2.2-.2.3,0,.4,0,.5.2.8,2.3,2,4.1,3.5,5.4,1.5,1.3,3.2,1.9,5,1.9s2.4-.3,3.2-1c.7-.7,1.1-1.6,1.1-2.9,0-1.9-.5-3.3-1.6-4.3-1-1-2.6-2-4.7-3.1-1.6-.8-2.8-1.5-3.7-2.1s-1.6-1.4-2.3-2.4c-.6-1-.9-2.2-.9-3.6,0-2.6.9-4.5,2.8-5.8s4.2-2,6.8-2,3.6.4,5.2,1c.4.2.6.4.6.8,0,1,0,1.8,0,2.3v3c0,0-.2.1-.5.1s-.4,0-.4-.1c0-1.4-.8-2.8-2.3-4-1.6-1.2-3.2-1.8-5-1.8s-2,.3-2.7.8c-.7.6-1,1.4-1,2.7s.5,2.9,1.5,3.8Z"/>
    <path class="st0" d="M532.9,52.1c.1,0,.3.1.3.3,0,.2,0,.4,0,.5-1.7,1.4-3.3,2.4-4.7,3-1.4.6-2.9.9-4.5.9s-3.6-.5-4.9-1.4-1.9-2.4-1.9-4.5v-16.3c0-1.1,0-1.9-.3-2.5-.2-.5-.5-.9-1-1.1s-1.3-.3-2.3-.3-.2-.2-.2-.5,0-.5.2-.5c2,0,3.6-.5,4.8-1.5,1.2-.9,2-2.2,2.3-3.9,0-.1.2-.2.6-.2s.5,0,.5.2v5.3c2.2,0,5.4-.3,9.6-.7.1,0,.3.2.3.5,0,.3.1.7.1,1.1s0,.8-.2,1.2c-.1.4-.3.6-.5.5-2.6-.6-5.7-1-9.4-1.1v17.2c0,3.7,1.8,5.6,5.5,5.6s3.8-.7,5.6-2h.1Z"/>
    <path class="st0" d="M543.6,54.8c-2.1-1.3-3.7-3.1-4.8-5.4-1.1-2.3-1.7-4.7-1.7-7.4s.7-5.6,2.2-7.7c1.5-2.1,3.4-3.7,5.7-4.8,2.3-1,4.7-1.6,7.1-1.6s5.2.7,7.2,2c2.1,1.4,3.7,3.1,4.8,5.4,1.1,2.2,1.7,4.6,1.7,7s-.7,5.4-2,7.6c-1.4,2.2-3.2,3.8-5.5,5-2.3,1.2-4.8,1.8-7.5,1.8s-5.2-.7-7.2-2ZM558.5,52.8c1.3-1.8,2-4.6,2-8.3s-.5-5.6-1.4-7.8c-.9-2.3-2.2-4.1-3.8-5.3-1.6-1.3-3.5-1.9-5.5-1.9s-4.2.9-5.5,2.7c-1.3,1.8-2,4.4-2,7.8s.5,5.5,1.4,7.9c.9,2.4,2.2,4.3,3.7,5.7,1.6,1.4,3.4,2.1,5.5,2.1s4.3-.9,5.6-2.7Z"/>
    <path class="st0" d="M590.8,29.2c1,.6,1.4,1.3,1.4,2.2s-.2,1.2-.7,1.6c-.4.4-1,.7-1.8.7s-.9,0-1.2-.3c-.3-.2-.7-.5-1.1-.8-.5-.4-.9-.7-1.2-.8-.3-.2-.8-.3-1.3-.3s-1.2.2-1.9.7-1.6,1.5-3,3.1v15.1c0,1.4.2,2.4.5,3,.3.7,1,1.1,1.9,1.4.9.3,2.4.4,4.3.4s.2.1.2.4,0,.4-.2.4c-1.5,0-2.8,0-3.7,0h-5.2c0,0-3.8,0-3.8,0-.7,0-1.5,0-2.7,0s-.2-.1-.2-.4,0-.4.2-.4c1.2,0,2.1-.1,2.7-.4.6-.3,1-.7,1.2-1.4.2-.7.3-1.7.3-3v-13.7c0-1.5-.2-2.7-.6-3.4-.4-.7-1-1-1.8-1s-1.9.3-3.7,1h0c-.2,0-.3-.1-.4-.3,0-.2,0-.4.1-.5l8.4-4.1h.4c.5,0,.9.5,1.4,1.5.4,1,.7,2.4.7,4.1,1.9-2.2,3.4-3.7,4.5-4.5,1.1-.8,2.2-1.2,3.2-1.2s2,.3,3,.9Z"/>
    <path class="st0" d="M619.4,51.9c.1,0,.3,0,.4.2.1.2.1.3,0,.5-3.1,2.8-6.6,4.2-10.4,4.2s-5.1-.6-7.1-1.9c-2-1.2-3.5-2.9-4.5-5-1-2.1-1.5-4.3-1.5-6.7s.7-5.3,2-7.6c1.3-2.3,3.1-4.1,5.4-5.4,2.3-1.3,4.8-2,7.6-2s4.8.7,6.2,2.1c1.4,1.4,2.1,3.3,2.1,5.9s-.3,1.9-.8,1.9h-17.3c0,1.1-.1,1.9-.1,2.5,0,4.1,1,7.3,2.9,9.8,1.9,2.5,4.6,3.7,8.1,3.7s2.6-.2,3.5-.5c1-.3,2.1-.9,3.4-1.7h0ZM604.2,31.7c-1.3,1.3-2.1,3.2-2.5,5.6l12.7-.3c0-2.4-.5-4.2-1.4-5.4-1-1.2-2.3-1.9-4-1.9s-3.6.7-4.8,2Z"/>
  </g>
</svg>