<?xml version="1.0" encoding="UTF-8"?>
<svg id="_レイヤー_1" xmlns="http://www.w3.org/2000/svg" version="1.1" viewBox="0 0 700 500">
  <!-- Generator: Adobe Illustrator 29.0.1, SVG Export Plug-In . SVG Version: 2.1.0 Build 192)  -->
  <defs>
    <style>
      .st0 {
        fill: #f9f8f8;
      }
    </style>
  </defs>
  <path class="st0" d="M282.2,439.7c-41.4-32.2-107-133.2-126.7-163.3-32,46.1-55,87-78.7,127.1-16.8,28.3-16.1,29.9-27.8,28.3-11.6-.6-5-17.5-4.5-24.6,5.7-27.8,12.6-55.1,21.1-81.9,14.8-46.6,34.5-91.3,55.1-135.3,6.7-14.7,14.6-29.2,20.7-43.8-7.5,5.4-14.4,16.8-21.1,24.6-28.1,36.9-27.6,49.3-35.1,48.9-10.4-.3-2.9-8.5-1.1-13.5,12.3-23.6,28.2-44.7,45.8-64.8,4.9-5.4,13.2-14.8,18.1-15.2,15.5-1.3,14.4,5.2,10.6,14.9-4.7,12.3-10.5,23.7-15.9,35.5-33.5,72-65.3,146-80.4,222.7,24.6-40,48.9-81.1,75.7-120,26.8-38.9,138.6-181.2,202.7-244.5,8.9-8.8,13.6-4.1,14.5.7-47.4,44-86.3,95.6-127.2,145.4-17.9,23.5-27.2,34.4-32.6,41.5-10.9,13.9-21,27.5-30.5,40.7,25.2,46.4,105.5,155.9,128.2,172.7,4.7,3.4,12.2,6.5,17,5.6,12-2.2,16.1-14,15-7.7-.5,3.5-8.3,11-16.8,12.5-12.4,2.3-20.1-1.9-26.1-6.4h0Z"/>
  <path class="st0" d="M263.2,312c-3.9-1.5-5.1-5.6-5.7-9.1-3.7-20,22.8-56.8,47.9-61,6.1-1.1,13.1-.8,17.8,1.4-1.3-3.6.5-4.8,2.9-5.2,2.9-.3,5.7.3,8.3,1.4,1.7.8,2.7,2.2,3.2,3.9,2.5,9.7,9.3,23.7,15.2,30.2,4.3,5.1,10,6.7,17,5.4,17.4-3.2,38-22,50.3-35.8,1.5-1.6,3.1-3.7,4.8-5.6.4-.3.6-.6,1-.4.7.3.2.9.2,1.1-.6,2.8-1.9,5.3-3.3,7.6-3.1,5.3-7.4,10.1-11.7,14.5-11.1,10.4-25.8,20.9-38.4,23.2-9.8,1.8-18.9-.1-28.7-5.7-7.3-4.3-13.7-15.9-18.3-25.2-12.5,22.7-21.1,35.4-32.3,49.1-2.8,3.2-6.1,6.1-9.5,8.5-2.6,1.8-5.1,3-7.7,3.4-4.1.8-8.5,0-12.9-1.9v.2ZM303.9,275.5c6.2-7.9,11.5-17.2,17-26.1-2.1-1.9-4.6-3.2-8.5-2.3-17.9,4-42.8,43.6-40.4,56.4.6,3.3,3.1,2.3,4.5,1.4,11.9-7.6,20.5-20.6,27.4-29.5h0Z"/>
  <path class="st0" d="M392.8,483c-11.6-1-15.9-8.1-17.5-17-3.4-18.7,10-45.7,20-62.6,12.1-20,26.2-38.5,41.6-56,14.1-16.1,29.1-31.2,44-46.5,4.2-21.4,9.2-42.8,7.2-67-19.1,23.1-43.9,52.3-61,55.5-2.4.4-4.8.7-7.4.2-5.6-1-12.4-5.1-13.5-11.2-.9-4.8,3.2-15.6,6.8-22.8,11.2-20.7,34.2-42.5,55.9-44.2,13.1-1.1,27.5,5.1,27.6,14.5.2,1.3-.4,2.6-.8,4,0,.2,3.8,4.9,4.7,9.5,2.7,14.6.6,28.9-1.5,43,4.6-4.2,9.6-9.2,14.1-13.6,19-19,38.5-37.4,58.7-54.8.4,0,.6-.6.8-.6.9-.2,1.4-2.1,2.2-1.3.2.1.3.3.3.4,0,.7-1.1,1.3-1.7,1.9-12.6,12.4-25.1,24.6-37.4,37.2-13.3,13.2-25.8,27-38.9,40.4-7.4,39.1-20.8,76.2-37.8,112.1-7.7,15.6-34.8,73.6-59.8,78.2l-2.6.5c-1.3.2-2.6.5-4,.3h0ZM446.8,398.5c12.4-27.7,23.4-56,31-85.7-8.7,10.4-18.1,20.4-26.5,30.5-16.1,18.9-32.1,38-45.1,59.3-10.8,18.2-24.2,44.7-20.6,64.2.9,4.8,3.1,12.2,8.4,11.3,23.3-5.2,45.6-63.9,52.8-79.6h0ZM431.5,279.9c10.5-7.6,20.4-16.1,29.4-25.9l18-19.3c1.9-1.9,3.8-4.1,6-5.2,1.8-1,2.8-1.6,1.6-3.4l-.4-2.4c-1.7-5.7-6.3-8.7-11.5-7.8-11.1,2-29.1,19.1-36.1,28.4-6.7,8.9-12.2,18.2-15.1,28.9-.8,3.1-1.4,6.1-1.2,9.2v.7c.4,1.3,1.1,1.6,2.5.9,2.4-1.3,4.7-2.7,6.9-4.2h0Z"/>
  <path class="st0" d="M595.7,236.9c-.6-3,0-6.5-.5-10-2.3,3.3-22.5,32.7-31.4,34.3-2.8.5-5.8.2-9-1-3.4-1.2-5.1-4.5-5.8-8.4-2.2-12,10.1-41.6,15.1-51.3,1.3-2.7,3.7-4.3,6.3-4.8s5.4.1,7.5,1.8c.8.8,1.2,1.6.9,2.5-6.9,16.3-9.4,21.3-14.6,40.2-1.1,3.8-1.5,6.3-2.1,10.7-.4,3,1.5,3.3,3.7,1.6,12.6-11.1,24.1-31.6,32-44.5.8-1.5,1.7-3,2.3-4.7,1.1-2.5,2.7-3.4,5.3-3.2,6.2.9,7.7,1.7,8.1,3.9.2.9.2,2.2,0,3.6-1.5,12.4-6.2,23.6-3.9,36,.6,3.3,1.4,5.4,3.8,4.9,17.4-3.2,37.6-21.5,49.9-35.3,1.5-1.6,3.1-3.7,4.8-5.6.4-.3.6-.6,1-.4.7.3.2.9.2,1.1-.6,2.8-1.9,5.3-3.3,7.6-3.1,5.3-7.4,10.1-11.7,14.5-11.1,10.4-25.8,20.9-38.4,23.2-3,.6-17.1-.2-20.2-16.7h0Z"/>
</svg>